<svg width="61" height="46" viewBox="0 0 61 46" fill="none" xmlns="http://www.w3.org/2000/svg">
<path d="M29.4085 21.142C25.8137 21.142 22.7806 21.8449 22.7806 24.5578C22.7806 27.2718 25.8333 27.95 29.4085 27.95C33.0032 27.95 36.0363 27.2471 36.0363 24.5342C36.0363 21.8202 32.9836 21.142 29.4085 21.142" fill="#200E32"/>
<path opacity="0.4" d="M29.4084 18.5573C31.8425 18.5573 33.7942 16.2083 33.7942 13.2787C33.7942 10.3479 31.8425 8 29.4084 8C26.9742 8 25.0225 10.3479 25.0225 13.2787C25.0225 16.2083 26.9742 18.5573 29.4084 18.5573" fill="#200E32"/>
<path opacity="0.4" d="M38.9307 14.5078C39.5605 11.5434 37.7142 8.88101 35.3631 8.88101C35.1074 8.88101 34.863 8.9147 34.6242 8.97197C34.5924 8.98095 34.557 9.00004 34.5383 9.03372C34.5169 9.07639 34.5327 9.13366 34.556 9.17072C35.2623 10.3632 35.6681 11.8151 35.6681 13.3737C35.6681 14.8671 35.2959 16.2595 34.6428 17.4149C34.5756 17.5339 34.6354 17.6945 34.7538 17.7192C34.918 17.754 35.086 17.772 35.2576 17.7776C36.9696 17.8315 38.5062 16.5054 38.9307 14.5078" fill="#200E32"/>
<path d="M40.7244 21.4874C40.4109 20.6834 39.6542 20.1321 38.5039 19.8614C37.9609 19.702 36.4915 19.4774 35.1247 19.5077C35.1042 19.5111 35.093 19.5279 35.0911 19.5392C35.0883 19.5549 35.0939 19.5818 35.121 19.5987C35.7526 19.9749 38.1942 21.6109 37.8872 25.0615C37.8741 25.2108 37.974 25.34 38.0981 25.3175C38.6989 25.2142 40.2448 24.8145 40.7244 23.5692C40.9893 22.9112 40.9893 22.1465 40.7244 21.4874" fill="#200E32"/>
<path opacity="0.4" d="M24.2984 8.9723C24.0605 8.91391 23.8151 8.88135 23.5595 8.88135C21.2084 8.88135 19.3621 11.5437 19.9928 14.5081C20.4163 16.5057 21.9529 17.8318 23.6649 17.7779C23.8366 17.7723 24.0055 17.7532 24.1687 17.7195C24.2872 17.6948 24.3469 17.5343 24.2798 17.4152C23.6267 16.2587 23.2544 14.8674 23.2544 13.374C23.2544 11.8143 23.6612 10.3624 24.3675 9.17105C24.3899 9.134 24.4067 9.07673 24.3843 9.03406C24.3656 8.99925 24.3311 8.98128 24.2984 8.9723" fill="#200E32"/>
<path d="M20.419 19.8611C19.2686 20.1317 18.5129 20.6831 18.1994 21.487C17.9335 22.1462 17.9335 22.9108 18.1994 23.57C18.679 24.8141 20.2249 25.215 20.8257 25.3172C20.9498 25.3396 21.0487 25.2116 21.0356 25.0612C20.7287 21.6117 23.1703 19.9756 23.8028 19.5995C23.829 19.5815 23.8346 19.5557 23.8318 19.5388C23.8299 19.5276 23.8196 19.5108 23.7991 19.5085C22.4314 19.4771 20.9629 19.7017 20.419 19.8611" fill="#200E32"/>
<path d="M5.20508 38.168H4.16797V42H3.04297V33.4688H4.16797V37.2305H5.04688L8.0293 33.4688H9.42969L6.17188 37.6055L9.66992 42H8.29297L5.20508 38.168ZM17.6035 36.5566H14.6797V42H13.5898V35.6602H17.6035V36.5566ZM23.9023 38.9004C23.9023 39.8652 23.6816 40.6426 23.2402 41.2324C22.7988 41.8223 22.2012 42.1172 21.4473 42.1172C20.6777 42.1172 20.0723 41.873 19.6309 41.3848V44.4375H18.5469V35.6602H19.5371L19.5898 36.3633C20.0312 35.8164 20.6445 35.543 21.4297 35.543C22.1914 35.543 22.793 35.8301 23.2344 36.4043C23.6797 36.9785 23.9023 37.7773 23.9023 38.8008V38.9004ZM22.8184 38.7773C22.8184 38.0625 22.666 37.498 22.3613 37.084C22.0566 36.6699 21.6387 36.4629 21.1074 36.4629C20.4512 36.4629 19.959 36.7539 19.6309 37.3359V40.3652C19.9551 40.9434 20.4512 41.2324 21.1191 41.2324C21.6387 41.2324 22.0508 41.0273 22.3555 40.6172C22.6641 40.2031 22.8184 39.5898 22.8184 38.7773ZM27.2891 40.4121L28.7656 35.6602H29.9258L27.377 42.9785C26.9824 44.0332 26.3555 44.5605 25.4961 44.5605L25.291 44.543L24.8867 44.4668V43.5879L25.1797 43.6113C25.5469 43.6113 25.832 43.5371 26.0352 43.3887C26.2422 43.2402 26.4121 42.9688 26.5449 42.5742L26.7852 41.9297L24.5234 35.6602H25.707L27.2891 40.4121ZM36.084 42H35V36.5566H32.082V42H30.9922V35.6602H36.084V42ZM43.0098 42H41.9258V36.5566H39.0078V42H37.918V35.6602H43.0098V42ZM48.6641 42C48.6016 41.875 48.5508 41.6523 48.5117 41.332C48.0078 41.8555 47.4062 42.1172 46.707 42.1172C46.082 42.1172 45.5684 41.9414 45.166 41.5898C44.7676 41.2344 44.5684 40.7852 44.5684 40.2422C44.5684 39.582 44.8184 39.0703 45.3184 38.707C45.8223 38.3398 46.5293 38.1562 47.4395 38.1562H48.4941V37.6582C48.4941 37.2793 48.3809 36.9785 48.1543 36.7559C47.9277 36.5293 47.5938 36.416 47.1523 36.416C46.7656 36.416 46.4414 36.5137 46.1797 36.709C45.918 36.9043 45.7871 37.1406 45.7871 37.418H44.6973C44.6973 37.1016 44.8086 36.7969 45.0312 36.5039C45.2578 36.207 45.5625 35.9727 45.9453 35.8008C46.332 35.6289 46.7559 35.543 47.2168 35.543C47.9473 35.543 48.5195 35.7266 48.9336 36.0938C49.3477 36.457 49.5625 36.959 49.5781 37.5996V40.5176C49.5781 41.0996 49.6523 41.5625 49.8008 41.9062V42H48.6641ZM46.8652 41.1738C47.2051 41.1738 47.5273 41.0859 47.832 40.9102C48.1367 40.7344 48.3574 40.5059 48.4941 40.2246V38.9238H47.6445C46.3164 38.9238 45.6523 39.3125 45.6523 40.0898C45.6523 40.4297 45.7656 40.6953 45.9922 40.8867C46.2188 41.0781 46.5098 41.1738 46.8652 41.1738ZM54.9277 40.5645L57.084 35.6602H58.4375V42H57.3535V37.3887L55.3027 42H54.5527L52.4609 37.2891V42H51.377V35.6602H52.7832L54.9277 40.5645Z" fill="black"/>
</svg>
