<svg width="203" height="25" viewBox="0 0 203 25" fill="none" xmlns="http://www.w3.org/2000/svg">
<path d="M38.8345 8.60352C38.8311 9.43085 38.5678 10.0871 38.0445 10.5724C37.5213 11.0462 36.823 11.3494 35.9498 11.4819L35.9496 11.5499C36.969 11.69 37.7441 12.0105 38.2747 12.5113C38.8054 13.0121 39.0691 13.6648 39.0658 14.4695C39.0615 15.5348 38.65 16.4002 37.8313 17.0655C37.0126 17.7309 35.7873 18.0603 34.1553 18.0537C33.498 18.0511 32.8692 17.9975 32.269 17.8931C31.68 17.8001 31.131 17.6279 30.622 17.3765L30.6276 15.9825C31.1593 16.234 31.7365 16.4346 32.3592 16.5845C32.9933 16.723 33.5881 16.7934 34.1434 16.7957C35.2314 16.8001 36.0539 16.5994 36.6108 16.1936C37.1792 15.7879 37.4648 15.2111 37.4678 14.4631C37.4709 13.6924 37.1445 13.1301 36.4886 12.7761C35.8327 12.4221 34.9154 12.2427 33.7368 12.238L32.0028 12.231L32.0079 10.956L33.6569 10.9627C34.8582 10.9675 35.7544 10.7728 36.3453 10.3785C36.9476 9.97293 37.2501 9.43014 37.2529 8.75015C37.2553 8.13815 37.0306 7.66691 36.5786 7.33642C36.1266 7.00592 35.5379 6.83922 34.8126 6.83629C34.0532 6.83323 33.4182 6.927 32.9074 7.11761C32.408 7.30826 31.9196 7.55563 31.4424 7.85971L30.7156 6.81977C31.193 6.47036 31.7779 6.17805 32.4702 5.94284C33.1738 5.69634 33.962 5.57485 34.8346 5.57837C36.1493 5.58367 37.1455 5.87102 37.8232 6.44043C38.5009 7.00983 38.838 7.73087 38.8345 8.60352ZM44.9014 8.66199C46.0121 8.66647 46.8328 8.91345 47.3635 9.40293C47.8942 9.89241 48.1574 10.6698 48.1531 11.7351L48.128 17.9401L47.04 17.9357L46.7563 16.6425L46.6883 16.6423C46.2896 17.1393 45.8688 17.506 45.4258 17.7422C44.9942 17.9784 44.393 18.095 43.6224 18.0919C42.7951 18.0886 42.1103 17.8705 41.568 17.4376C41.0258 16.9934 40.7566 16.3067 40.7603 15.3773C40.764 14.4707 41.1238 13.7751 41.8397 13.2907C42.5557 12.7949 43.6562 12.5273 45.141 12.488L46.6882 12.4432L46.6904 11.8992C46.6934 11.1399 46.5312 10.6122 46.2038 10.3163C45.8763 10.0203 45.4122 9.87106 44.8116 9.86864C44.3356 9.86672 43.8819 9.93856 43.4507 10.0842C43.0195 10.2184 42.6165 10.3755 42.2418 10.5553L41.7873 9.43144C42.1848 9.21771 42.6559 9.03827 43.2005 8.89314C43.7451 8.73666 44.3121 8.65962 44.9014 8.66199ZM45.3238 13.5257C44.1903 13.5665 43.4019 13.7447 42.9586 14.0602C42.5267 14.3758 42.3096 14.8226 42.3072 15.4006C42.3052 15.9106 42.4567 16.2852 42.7617 16.5244C43.0781 16.7637 43.4799 16.8843 43.9673 16.8863C44.7379 16.8894 45.3791 16.6823 45.8908 16.265C46.4025 15.8364 46.6602 15.1801 46.6637 14.2961L46.667 13.4802L45.3238 13.5257ZM55.3147 8.68699C56.4367 8.69152 57.3361 9.08615 58.013 9.87088C58.7011 10.6557 59.042 11.8357 59.0357 13.411C59.0294 14.9637 58.679 16.141 57.9844 16.9428C57.3012 17.7447 56.3929 18.1434 55.2596 18.1388C54.5569 18.136 53.9738 18.0033 53.5102 17.7408C53.0579 17.467 52.7022 17.1539 52.443 16.8015L52.341 16.8011C52.3628 16.9938 52.3845 17.2376 52.406 17.5323C52.4275 17.8271 52.4378 18.0821 52.4369 18.2975L52.4218 22.0374L50.9259 22.0314L50.9791 8.83951L52.203 8.84444L52.402 10.0863L52.47 10.0865C52.7436 9.69096 53.102 9.35807 53.5451 9.08786C53.9882 8.81764 54.578 8.68402 55.3147 8.68699ZM55.0376 9.94388C54.1083 9.94014 53.4499 10.1981 53.0625 10.7179C52.6864 11.2377 52.4849 12.0303 52.4579 13.0955L52.4567 13.3845C52.4522 14.5065 52.63 15.3742 52.9902 15.9877C53.3618 16.5898 54.0463 16.8929 55.0436 16.897C55.5989 16.8992 56.0529 16.748 56.4054 16.4435C56.7693 16.1389 57.0373 15.7263 57.2094 15.2057C57.3929 14.6738 57.486 14.0678 57.4888 13.3878C57.493 12.3451 57.2923 11.5113 56.8869 10.8863C56.4927 10.2614 55.8763 9.94727 55.0376 9.94388ZM64.9576 8.72588C65.7396 8.72904 66.4076 8.90173 66.9615 9.24397C67.5268 9.58625 67.9556 10.0697 68.2477 10.6942C68.5512 11.3074 68.7013 12.0277 68.698 12.855L68.6944 13.756L62.4554 13.7308C62.4739 14.7622 62.7314 15.551 63.2279 16.097C63.7357 16.6317 64.443 16.9009 65.3496 16.9045C65.9276 16.9069 66.4378 16.8579 66.8802 16.7577C67.334 16.6462 67.7993 16.4894 68.2761 16.2873L68.2709 17.5963C67.8054 17.7984 67.3458 17.9439 66.8921 18.0328C66.4384 18.1329 65.8998 18.1818 65.2765 18.1792C64.4152 18.1758 63.6509 17.997 62.9836 17.643C62.3277 17.289 61.8142 16.7656 61.443 16.0728C61.0831 15.3686 60.9052 14.5123 60.9093 13.5036C60.9133 12.5063 61.0811 11.6513 61.4127 10.9386C61.7555 10.226 62.2281 9.67821 62.8303 9.29531C63.4438 8.91245 64.153 8.72264 64.9576 8.72588ZM64.9357 9.9498C64.2217 9.94692 63.6541 10.177 63.2329 10.6399C62.8231 11.0916 62.5768 11.7253 62.4942 12.541L67.1352 12.5597C67.1269 11.789 66.9481 11.1649 66.5987 10.6875C66.2494 10.1988 65.695 9.95287 64.9357 9.9498ZM76.5925 8.94281L76.5875 10.2008L72.5245 10.1844L72.4928 18.0383L70.9968 18.0323L71.0336 8.92039L76.5925 8.94281ZM79.7766 14.5147C79.776 14.6507 79.7695 14.8547 79.7571 15.1266C79.7447 15.3986 79.7266 15.6705 79.7028 15.9424C79.6904 16.2144 79.6782 16.4296 79.6662 16.5883L84.576 8.97501L86.412 8.98241L86.3752 18.0943L84.9812 18.0887L85.0029 12.7168C85.0036 12.5354 85.0046 12.2974 85.0058 12.0028C85.0183 11.7081 85.0308 11.4192 85.0433 11.1359C85.0558 10.8413 85.068 10.6203 85.0799 10.4731L80.2043 18.0694L78.3513 18.062L78.388 8.95005L79.799 8.95574L79.7766 14.5147ZM92.9293 18.2908C92.1246 18.2875 91.4056 18.1203 90.7723 17.7891C90.1503 17.4579 89.6594 16.9459 89.2995 16.2531C88.9509 15.5604 88.7788 14.6757 88.7832 13.599C88.7877 12.477 88.9784 11.5654 89.3552 10.8643C89.732 10.1631 90.2385 9.64951 90.8744 9.32341C91.5218 8.99735 92.2534 8.83597 93.0694 8.83926C93.5341 8.84113 93.9815 8.89394 94.4118 8.99767C94.8421 9.09008 95.193 9.20483 95.4644 9.34192L95.0004 10.5811C94.7288 10.478 94.4119 10.3804 94.0496 10.2882C93.6873 10.1961 93.3475 10.1494 93.0301 10.1481C91.2395 10.1409 90.3395 11.2876 90.3302 13.5883C90.3258 14.6876 90.5377 15.5328 90.966 16.1238C91.4057 16.7036 92.0562 16.9952 92.9175 16.9987C93.4162 17.0007 93.8527 16.9515 94.2271 16.851C94.6128 16.7505 94.9647 16.6273 95.2826 16.4812L95.2773 17.8072C94.9706 17.9647 94.6301 18.0823 94.2558 18.1601C93.8928 18.2493 93.4506 18.2929 92.9293 18.2908ZM103.765 10.3104L100.79 10.2984L100.758 18.1523L99.2789 18.1464L99.3106 10.2924L96.3696 10.2806L96.3747 9.02259L103.77 9.05241L103.765 10.3104ZM109.9 8.90714C111.022 8.91166 111.922 9.30629 112.598 10.091C113.287 10.8758 113.628 12.0559 113.621 13.6312C113.615 15.1838 113.265 16.3611 112.57 17.163C111.887 17.9649 110.978 18.3636 109.845 18.359C109.142 18.3562 108.559 18.2235 108.096 17.9609C107.643 17.6871 107.288 17.374 107.028 17.0216L106.926 17.0212C106.948 17.214 106.97 17.4577 106.992 17.7525C107.013 18.0472 107.023 18.3023 107.022 18.5176L107.007 22.2576L105.511 22.2515L105.565 9.05965L106.789 9.06459L106.988 10.3064L107.056 10.3067C107.329 9.91111 107.687 9.57822 108.131 9.308C108.574 9.03779 109.164 8.90417 109.9 8.90714ZM109.623 10.164C108.694 10.1603 108.035 10.4183 107.648 10.9381C107.272 11.4579 107.07 12.2504 107.043 13.3157L107.042 13.6047C107.038 14.7266 107.216 15.5944 107.576 16.2078C107.947 16.81 108.632 17.1131 109.629 17.1171C110.184 17.1194 110.638 16.9682 110.991 16.6636C111.355 16.3591 111.623 15.9465 111.795 15.4258C111.978 14.8939 112.072 14.2879 112.074 13.6079C112.078 12.5653 111.878 11.7315 111.472 11.1065C111.078 10.4816 110.462 10.1674 109.623 10.164ZM117.412 14.6665C117.411 14.8025 117.405 15.0065 117.393 15.2784C117.38 15.5504 117.362 15.8223 117.338 16.0942C117.326 16.3661 117.314 16.5814 117.302 16.7401L122.211 9.12679L124.047 9.1342L124.011 18.2461L122.617 18.2405L122.638 12.8685C122.639 12.6872 122.64 12.4492 122.641 12.1545C122.654 11.8599 122.666 11.571 122.679 11.2877C122.691 10.9931 122.703 10.7721 122.715 10.6248L117.84 18.2212L115.987 18.2138L116.023 9.10184L117.434 9.10753L117.412 14.6665ZM131.283 8.99338C132.405 8.9979 133.304 9.39253 133.981 10.1773C134.669 10.962 135.01 12.1421 135.004 13.7174C134.998 15.2701 134.647 16.4473 133.953 17.2492C133.269 18.0511 132.361 18.4498 131.228 18.4452C130.525 18.4424 129.942 18.3097 129.478 18.0472C129.026 17.7733 128.67 17.4602 128.411 17.1079L128.309 17.1074C128.331 17.3002 128.353 17.544 128.374 17.8387C128.396 18.1335 128.406 18.3885 128.405 18.6038L128.39 22.3438L126.894 22.3378L126.947 9.14589L128.171 9.15083L128.37 10.3926L128.438 10.3929C128.712 9.99735 129.07 9.66446 129.513 9.39424C129.956 9.12403 130.546 8.99041 131.283 8.99338ZM131.006 10.2503C130.076 10.2465 129.418 10.5045 129.031 11.0243C128.655 11.5441 128.453 12.3367 128.426 13.4019L128.425 13.6909C128.42 14.8129 128.598 15.6806 128.958 16.2941C129.33 16.8962 130.014 17.1993 131.012 17.2034C131.567 17.2056 132.021 17.0544 132.374 16.7498C132.737 16.4453 133.005 16.0327 133.178 15.5121C133.361 14.9801 133.454 14.3742 133.457 13.6942C133.461 12.6515 133.26 11.8177 132.855 11.1927C132.461 10.5678 131.844 10.2537 131.006 10.2503ZM145.31 13.759C145.304 15.2663 144.914 16.4321 144.14 17.2563C143.377 18.0806 142.344 18.4901 141.041 18.4848C140.236 18.4816 139.517 18.2973 138.884 17.9321C138.262 17.5556 137.771 17.0153 137.411 16.3112C137.052 15.5957 136.874 14.7336 136.878 13.725C136.884 12.2177 137.268 11.0575 138.031 10.2446C138.793 9.43167 139.826 9.02783 141.13 9.03309C141.957 9.03643 142.682 9.22635 143.303 9.60286C143.937 9.96808 144.428 10.5027 144.776 11.2068C145.136 11.8996 145.314 12.7503 145.31 13.759ZM138.425 13.7312C138.42 14.8079 138.627 15.6644 139.043 16.3007C139.472 16.9258 140.15 17.2402 141.08 17.244C141.998 17.2477 142.673 16.9387 143.106 16.3171C143.54 15.6842 143.758 14.8294 143.763 13.7527C143.767 12.6761 143.555 11.8309 143.127 11.2172C142.699 10.6034 142.02 10.2947 141.091 10.2909C140.161 10.2872 139.486 10.5905 139.064 11.2008C138.642 11.8111 138.429 12.6546 138.425 13.7312ZM155.017 11.5541C155.014 12.1208 154.843 12.5621 154.501 12.878C154.16 13.194 153.723 13.4076 153.19 13.5188L153.189 13.5868C153.756 13.6684 154.248 13.8744 154.666 14.2047C155.084 14.5237 155.292 15.0233 155.289 15.7032C155.286 16.4739 154.994 17.1131 154.414 17.6207C153.846 18.1171 152.904 18.3627 151.589 18.3573L147.662 18.3415L147.699 9.22959L151.609 9.24535C152.255 9.24796 152.833 9.32396 153.342 9.47335C153.863 9.61145 154.27 9.85109 154.563 10.1923C154.868 10.5222 155.019 10.9761 155.017 11.5541ZM153.503 11.735C153.505 11.3043 153.347 10.992 153.031 10.7981C152.726 10.5929 152.222 10.4888 151.519 10.486L149.19 10.4766L149.18 12.9756L151.237 12.9839C152.744 12.99 153.5 12.5737 153.503 11.735ZM153.742 15.697C153.744 15.1757 153.547 14.8009 153.151 14.5726C152.756 14.3444 152.173 14.2287 151.402 14.2256L149.175 14.2166L149.163 17.1406L151.424 17.1497C152.172 17.1527 152.745 17.0473 153.142 16.8336C153.54 16.6085 153.74 16.2297 153.742 15.697ZM160.945 9.13001C162.056 9.13449 162.877 9.38147 163.407 9.87094C163.938 10.3604 164.201 11.1378 164.197 12.2031L164.172 18.4081L163.084 18.4037L162.8 17.1106L162.732 17.1103C162.334 17.6073 161.913 17.974 161.47 18.2102C161.038 18.4465 160.437 18.563 159.666 18.5599C158.839 18.5566 158.154 18.3385 157.612 17.9056C157.07 17.4614 156.801 16.7747 156.804 15.8454C156.808 14.9387 157.168 14.2431 157.884 13.7587C158.6 13.2629 159.7 12.9954 161.185 12.956L162.732 12.9112L162.734 12.3672C162.737 11.6079 162.575 11.0803 162.248 10.7843C161.92 10.4883 161.456 10.3391 160.856 10.3367C160.38 10.3347 159.926 10.4066 159.495 10.5522C159.063 10.6864 158.66 10.8435 158.286 11.0233L157.831 9.89945C158.229 9.68572 158.7 9.50629 159.244 9.36115C159.789 9.20468 160.356 9.12763 160.945 9.13001ZM161.368 13.9938C160.234 14.0345 159.446 14.2127 159.003 14.5282C158.571 14.8438 158.354 15.2906 158.351 15.8686C158.349 16.3786 158.501 16.7532 158.806 16.9924C159.122 17.2317 159.524 17.3523 160.011 17.3543C160.782 17.3574 161.423 17.1503 161.935 16.7331C162.446 16.3045 162.704 15.6482 162.708 14.7642L162.711 13.9482L161.368 13.9938ZM173.308 10.5909L170.333 10.5789L170.301 18.4328L168.822 18.4269L168.854 10.5729L165.913 10.5611L165.918 9.30306L173.313 9.33289L173.308 10.5909ZM179.292 13.097C181.66 13.1066 182.841 13.9727 182.834 15.6953C182.831 16.5453 182.539 17.2242 181.959 17.7318C181.379 18.2282 180.46 18.4738 179.202 18.4687L175.071 18.4521L175.108 9.34013L176.604 9.34616L176.589 13.0861L179.292 13.097ZM181.338 15.7743C181.34 15.219 181.143 14.8442 180.748 14.6499C180.363 14.4444 179.819 14.3402 179.117 14.3373L176.584 14.3271L176.572 17.2511L179.139 17.2614C179.774 17.264 180.295 17.1528 180.704 16.9278C181.125 16.7028 181.336 16.3183 181.338 15.7743ZM188.819 18.6775C188.014 18.6743 187.295 18.507 186.662 18.1758C186.04 17.8446 185.549 17.3326 185.189 16.6398C184.841 15.9471 184.669 15.0624 184.673 13.9857C184.678 12.8638 184.868 11.9522 185.245 11.251C185.622 10.5499 186.128 10.0362 186.764 9.71014C187.412 9.38408 188.143 9.2227 188.959 9.22599C189.424 9.22786 189.871 9.28067 190.302 9.3844C190.732 9.47681 191.083 9.59156 191.354 9.72865L190.89 10.9678C190.619 10.8647 190.302 10.7671 189.939 10.675C189.577 10.5828 189.237 10.5361 188.92 10.5348C187.129 10.5276 186.229 11.6743 186.22 13.975C186.216 15.0743 186.428 15.9195 186.856 16.5106C187.296 17.0903 187.946 17.382 188.807 17.3854C189.306 17.3875 189.743 17.3382 190.117 17.2377C190.503 17.1373 190.855 17.014 191.172 16.868L191.167 18.194C190.86 18.3514 190.52 18.469 190.146 18.5469C189.783 18.6361 189.34 18.6796 188.819 18.6775ZM193.894 18.528L192.16 18.521L194.776 14.7065C194.425 14.6144 194.086 14.4714 193.758 14.2774C193.43 14.0721 193.165 13.7933 192.962 13.4412C192.76 13.0777 192.66 12.6296 192.662 12.0969C192.665 11.2243 192.963 10.5625 193.554 10.1115C194.145 9.64924 194.928 9.42006 195.902 9.42399L199.982 9.44045L199.946 18.5524L198.45 18.5463L198.464 14.9254L196.254 14.9165L193.894 18.528ZM194.107 12.1198C194.104 12.6411 194.296 13.0329 194.68 13.2951C195.076 13.546 195.625 13.6729 196.327 13.6757L198.469 13.6844L198.481 10.6754L196.05 10.6656C195.359 10.6628 194.86 10.7968 194.553 11.0676C194.257 11.3384 194.108 11.6891 194.107 12.1198Z" fill="#FCBCBC"/>
<path d="M38.8345 8.60352C38.8311 9.43085 38.5678 10.0871 38.0445 10.5724C37.5213 11.0462 36.823 11.3494 35.9498 11.4819L35.9496 11.5499C36.969 11.69 37.7441 12.0105 38.2747 12.5113C38.8054 13.0121 39.0691 13.6648 39.0658 14.4695C39.0615 15.5348 38.65 16.4002 37.8313 17.0655C37.0126 17.7309 35.7873 18.0603 34.1553 18.0537C33.498 18.0511 32.8692 17.9975 32.269 17.8931C31.68 17.8001 31.131 17.6279 30.622 17.3765L30.6276 15.9825C31.1593 16.234 31.7365 16.4346 32.3592 16.5845C32.9933 16.723 33.5881 16.7934 34.1434 16.7957C35.2314 16.8001 36.0539 16.5994 36.6108 16.1936C37.1792 15.7879 37.4648 15.2111 37.4678 14.4631C37.4709 13.6924 37.1445 13.1301 36.4886 12.7761C35.8327 12.4221 34.9154 12.2427 33.7368 12.238L32.0028 12.231L32.0079 10.956L33.6569 10.9627C34.8582 10.9675 35.7544 10.7728 36.3453 10.3785C36.9476 9.97293 37.2501 9.43014 37.2529 8.75015C37.2553 8.13815 37.0306 7.66691 36.5786 7.33642C36.1266 7.00592 35.5379 6.83922 34.8126 6.83629C34.0532 6.83323 33.4182 6.927 32.9074 7.11761C32.408 7.30826 31.9196 7.55563 31.4424 7.85971L30.7156 6.81977C31.193 6.47036 31.7779 6.17805 32.4702 5.94284C33.1738 5.69634 33.962 5.57485 34.8346 5.57837C36.1493 5.58367 37.1455 5.87102 37.8232 6.44043C38.5009 7.00983 38.838 7.73087 38.8345 8.60352ZM44.9014 8.66199C46.0121 8.66647 46.8328 8.91345 47.3635 9.40293C47.8942 9.89241 48.1574 10.6698 48.1531 11.7351L48.128 17.9401L47.04 17.9357L46.7563 16.6425L46.6883 16.6423C46.2896 17.1393 45.8688 17.506 45.4258 17.7422C44.9942 17.9784 44.393 18.095 43.6224 18.0919C42.7951 18.0886 42.1103 17.8705 41.568 17.4376C41.0258 16.9934 40.7566 16.3067 40.7603 15.3773C40.764 14.4707 41.1238 13.7751 41.8397 13.2907C42.5557 12.7949 43.6562 12.5273 45.141 12.488L46.6882 12.4432L46.6904 11.8992C46.6934 11.1399 46.5312 10.6122 46.2038 10.3163C45.8763 10.0203 45.4122 9.87106 44.8116 9.86864C44.3356 9.86672 43.8819 9.93856 43.4507 10.0842C43.0195 10.2184 42.6165 10.3755 42.2418 10.5553L41.7873 9.43144C42.1848 9.21771 42.6559 9.03827 43.2005 8.89314C43.7451 8.73666 44.3121 8.65962 44.9014 8.66199ZM45.3238 13.5257C44.1903 13.5665 43.4019 13.7447 42.9586 14.0602C42.5267 14.3758 42.3096 14.8226 42.3072 15.4006C42.3052 15.9106 42.4567 16.2852 42.7617 16.5244C43.0781 16.7637 43.4799 16.8843 43.9673 16.8863C44.7379 16.8894 45.3791 16.6823 45.8908 16.265C46.4025 15.8364 46.6602 15.1801 46.6637 14.2961L46.667 13.4802L45.3238 13.5257ZM55.3147 8.68699C56.4367 8.69152 57.3361 9.08615 58.013 9.87088C58.7011 10.6557 59.042 11.8357 59.0357 13.411C59.0294 14.9637 58.679 16.141 57.9844 16.9428C57.3012 17.7447 56.3929 18.1434 55.2596 18.1388C54.5569 18.136 53.9738 18.0033 53.5102 17.7408C53.0579 17.467 52.7022 17.1539 52.443 16.8015L52.341 16.8011C52.3628 16.9938 52.3845 17.2376 52.406 17.5323C52.4275 17.8271 52.4378 18.0821 52.4369 18.2975L52.4218 22.0374L50.9259 22.0314L50.9791 8.83951L52.203 8.84444L52.402 10.0863L52.47 10.0865C52.7436 9.69096 53.102 9.35807 53.5451 9.08786C53.9882 8.81764 54.578 8.68402 55.3147 8.68699ZM55.0376 9.94388C54.1083 9.94014 53.4499 10.1981 53.0625 10.7179C52.6864 11.2377 52.4849 12.0303 52.4579 13.0955L52.4567 13.3845C52.4522 14.5065 52.63 15.3742 52.9902 15.9877C53.3618 16.5898 54.0463 16.8929 55.0436 16.897C55.5989 16.8992 56.0529 16.748 56.4054 16.4435C56.7693 16.1389 57.0373 15.7263 57.2094 15.2057C57.3929 14.6738 57.486 14.0678 57.4888 13.3878C57.493 12.3451 57.2923 11.5113 56.8869 10.8863C56.4927 10.2614 55.8763 9.94727 55.0376 9.94388ZM64.9576 8.72588C65.7396 8.72904 66.4076 8.90173 66.9615 9.24397C67.5268 9.58625 67.9556 10.0697 68.2477 10.6942C68.5512 11.3074 68.7013 12.0277 68.698 12.855L68.6944 13.756L62.4554 13.7308C62.4739 14.7622 62.7314 15.551 63.2279 16.097C63.7357 16.6317 64.443 16.9009 65.3496 16.9045C65.9276 16.9069 66.4378 16.8579 66.8802 16.7577C67.334 16.6462 67.7993 16.4894 68.2761 16.2873L68.2709 17.5963C67.8054 17.7984 67.3458 17.9439 66.8921 18.0328C66.4384 18.1329 65.8998 18.1818 65.2765 18.1792C64.4152 18.1758 63.6509 17.997 62.9836 17.643C62.3277 17.289 61.8142 16.7656 61.443 16.0728C61.0831 15.3686 60.9052 14.5123 60.9093 13.5036C60.9133 12.5063 61.0811 11.6513 61.4127 10.9386C61.7555 10.226 62.2281 9.67821 62.8303 9.29531C63.4438 8.91245 64.153 8.72264 64.9576 8.72588ZM64.9357 9.9498C64.2217 9.94692 63.6541 10.177 63.2329 10.6399C62.8231 11.0916 62.5768 11.7253 62.4942 12.541L67.1352 12.5597C67.1269 11.789 66.9481 11.1649 66.5987 10.6875C66.2494 10.1988 65.695 9.95287 64.9357 9.9498ZM76.5925 8.94281L76.5875 10.2008L72.5245 10.1844L72.4928 18.0383L70.9968 18.0323L71.0336 8.92039L76.5925 8.94281ZM79.7766 14.5147C79.776 14.6507 79.7695 14.8547 79.7571 15.1266C79.7447 15.3986 79.7266 15.6705 79.7028 15.9424C79.6904 16.2144 79.6782 16.4296 79.6662 16.5883L84.576 8.97501L86.412 8.98241L86.3752 18.0943L84.9812 18.0887L85.0029 12.7168C85.0036 12.5354 85.0046 12.2974 85.0058 12.0028C85.0183 11.7081 85.0308 11.4192 85.0433 11.1359C85.0558 10.8413 85.068 10.6203 85.0799 10.4731L80.2043 18.0694L78.3513 18.062L78.388 8.95005L79.799 8.95574L79.7766 14.5147ZM92.9293 18.2908C92.1246 18.2875 91.4056 18.1203 90.7723 17.7891C90.1503 17.4579 89.6594 16.9459 89.2995 16.2531C88.9509 15.5604 88.7788 14.6757 88.7832 13.599C88.7877 12.477 88.9784 11.5654 89.3552 10.8643C89.732 10.1631 90.2385 9.64951 90.8744 9.32341C91.5218 8.99735 92.2534 8.83597 93.0694 8.83926C93.5341 8.84113 93.9815 8.89394 94.4118 8.99767C94.8421 9.09008 95.193 9.20483 95.4644 9.34192L95.0004 10.5811C94.7288 10.478 94.4119 10.3804 94.0496 10.2882C93.6873 10.1961 93.3475 10.1494 93.0301 10.1481C91.2395 10.1409 90.3395 11.2876 90.3302 13.5883C90.3258 14.6876 90.5377 15.5328 90.966 16.1238C91.4057 16.7036 92.0562 16.9952 92.9175 16.9987C93.4162 17.0007 93.8527 16.9515 94.2271 16.851C94.6128 16.7505 94.9647 16.6273 95.2826 16.4812L95.2773 17.8072C94.9706 17.9647 94.6301 18.0823 94.2558 18.1601C93.8928 18.2493 93.4506 18.2929 92.9293 18.2908ZM103.765 10.3104L100.79 10.2984L100.758 18.1523L99.2789 18.1464L99.3106 10.2924L96.3696 10.2806L96.3747 9.02259L103.77 9.05241L103.765 10.3104ZM109.9 8.90714C111.022 8.91166 111.922 9.30629 112.598 10.091C113.287 10.8758 113.628 12.0559 113.621 13.6312C113.615 15.1838 113.265 16.3611 112.57 17.163C111.887 17.9649 110.978 18.3636 109.845 18.359C109.142 18.3562 108.559 18.2235 108.096 17.9609C107.643 17.6871 107.288 17.374 107.028 17.0216L106.926 17.0212C106.948 17.214 106.97 17.4577 106.992 17.7525C107.013 18.0472 107.023 18.3023 107.022 18.5176L107.007 22.2576L105.511 22.2515L105.565 9.05965L106.789 9.06459L106.988 10.3064L107.056 10.3067C107.329 9.91111 107.687 9.57822 108.131 9.308C108.574 9.03779 109.164 8.90417 109.9 8.90714ZM109.623 10.164C108.694 10.1603 108.035 10.4183 107.648 10.9381C107.272 11.4579 107.07 12.2504 107.043 13.3157L107.042 13.6047C107.038 14.7266 107.216 15.5944 107.576 16.2078C107.947 16.81 108.632 17.1131 109.629 17.1171C110.184 17.1194 110.638 16.9682 110.991 16.6636C111.355 16.3591 111.623 15.9465 111.795 15.4258C111.978 14.8939 112.072 14.2879 112.074 13.6079C112.078 12.5653 111.878 11.7315 111.472 11.1065C111.078 10.4816 110.462 10.1674 109.623 10.164ZM117.412 14.6665C117.411 14.8025 117.405 15.0065 117.393 15.2784C117.38 15.5504 117.362 15.8223 117.338 16.0942C117.326 16.3661 117.314 16.5814 117.302 16.7401L122.211 9.12679L124.047 9.1342L124.011 18.2461L122.617 18.2405L122.638 12.8685C122.639 12.6872 122.64 12.4492 122.641 12.1545C122.654 11.8599 122.666 11.571 122.679 11.2877C122.691 10.9931 122.703 10.7721 122.715 10.6248L117.84 18.2212L115.987 18.2138L116.023 9.10184L117.434 9.10753L117.412 14.6665ZM131.283 8.99338C132.405 8.9979 133.304 9.39253 133.981 10.1773C134.669 10.962 135.01 12.1421 135.004 13.7174C134.998 15.2701 134.647 16.4473 133.953 17.2492C133.269 18.0511 132.361 18.4498 131.228 18.4452C130.525 18.4424 129.942 18.3097 129.478 18.0472C129.026 17.7733 128.67 17.4602 128.411 17.1079L128.309 17.1074C128.331 17.3002 128.353 17.544 128.374 17.8387C128.396 18.1335 128.406 18.3885 128.405 18.6038L128.39 22.3438L126.894 22.3378L126.947 9.14589L128.171 9.15083L128.37 10.3926L128.438 10.3929C128.712 9.99735 129.07 9.66446 129.513 9.39424C129.956 9.12403 130.546 8.99041 131.283 8.99338ZM131.006 10.2503C130.076 10.2465 129.418 10.5045 129.031 11.0243C128.655 11.5441 128.453 12.3367 128.426 13.4019L128.425 13.6909C128.42 14.8129 128.598 15.6806 128.958 16.2941C129.33 16.8962 130.014 17.1993 131.012 17.2034C131.567 17.2056 132.021 17.0544 132.374 16.7498C132.737 16.4453 133.005 16.0327 133.178 15.5121C133.361 14.9801 133.454 14.3742 133.457 13.6942C133.461 12.6515 133.26 11.8177 132.855 11.1927C132.461 10.5678 131.844 10.2537 131.006 10.2503ZM145.31 13.759C145.304 15.2663 144.914 16.4321 144.14 17.2563C143.377 18.0806 142.344 18.4901 141.041 18.4848C140.236 18.4816 139.517 18.2973 138.884 17.9321C138.262 17.5556 137.771 17.0153 137.411 16.3112C137.052 15.5957 136.874 14.7336 136.878 13.725C136.884 12.2177 137.268 11.0575 138.031 10.2446C138.793 9.43167 139.826 9.02783 141.13 9.03309C141.957 9.03643 142.682 9.22635 143.303 9.60286C143.937 9.96808 144.428 10.5027 144.776 11.2068C145.136 11.8996 145.314 12.7503 145.31 13.759ZM138.425 13.7312C138.42 14.8079 138.627 15.6644 139.043 16.3007C139.472 16.9258 140.15 17.2402 141.08 17.244C141.998 17.2477 142.673 16.9387 143.106 16.3171C143.54 15.6842 143.758 14.8294 143.763 13.7527C143.767 12.6761 143.555 11.8309 143.127 11.2172C142.699 10.6034 142.02 10.2947 141.091 10.2909C140.161 10.2872 139.486 10.5905 139.064 11.2008C138.642 11.8111 138.429 12.6546 138.425 13.7312ZM155.017 11.5541C155.014 12.1208 154.843 12.5621 154.501 12.878C154.16 13.194 153.723 13.4076 153.19 13.5188L153.189 13.5868C153.756 13.6684 154.248 13.8744 154.666 14.2047C155.084 14.5237 155.292 15.0233 155.289 15.7032C155.286 16.4739 154.994 17.1131 154.414 17.6207C153.846 18.1171 152.904 18.3627 151.589 18.3573L147.662 18.3415L147.699 9.22959L151.609 9.24535C152.255 9.24796 152.833 9.32396 153.342 9.47335C153.863 9.61145 154.27 9.85109 154.563 10.1923C154.868 10.5222 155.019 10.9761 155.017 11.5541ZM153.503 11.735C153.505 11.3043 153.347 10.992 153.031 10.7981C152.726 10.5929 152.222 10.4888 151.519 10.486L149.19 10.4766L149.18 12.9756L151.237 12.9839C152.744 12.99 153.5 12.5737 153.503 11.735ZM153.742 15.697C153.744 15.1757 153.547 14.8009 153.151 14.5726C152.756 14.3444 152.173 14.2287 151.402 14.2256L149.175 14.2166L149.163 17.1406L151.424 17.1497C152.172 17.1527 152.745 17.0473 153.142 16.8336C153.54 16.6085 153.74 16.2297 153.742 15.697ZM160.945 9.13001C162.056 9.13449 162.877 9.38147 163.407 9.87094C163.938 10.3604 164.201 11.1378 164.197 12.2031L164.172 18.4081L163.084 18.4037L162.8 17.1106L162.732 17.1103C162.334 17.6073 161.913 17.974 161.47 18.2102C161.038 18.4465 160.437 18.563 159.666 18.5599C158.839 18.5566 158.154 18.3385 157.612 17.9056C157.07 17.4614 156.801 16.7747 156.804 15.8454C156.808 14.9387 157.168 14.2431 157.884 13.7587C158.6 13.2629 159.7 12.9954 161.185 12.956L162.732 12.9112L162.734 12.3672C162.737 11.6079 162.575 11.0803 162.248 10.7843C161.92 10.4883 161.456 10.3391 160.856 10.3367C160.38 10.3347 159.926 10.4066 159.495 10.5522C159.063 10.6864 158.66 10.8435 158.286 11.0233L157.831 9.89945C158.229 9.68572 158.7 9.50629 159.244 9.36115C159.789 9.20468 160.356 9.12763 160.945 9.13001ZM161.368 13.9938C160.234 14.0345 159.446 14.2127 159.003 14.5282C158.571 14.8438 158.354 15.2906 158.351 15.8686C158.349 16.3786 158.501 16.7532 158.806 16.9924C159.122 17.2317 159.524 17.3523 160.011 17.3543C160.782 17.3574 161.423 17.1503 161.935 16.7331C162.446 16.3045 162.704 15.6482 162.708 14.7642L162.711 13.9482L161.368 13.9938ZM173.308 10.5909L170.333 10.5789L170.301 18.4328L168.822 18.4269L168.854 10.5729L165.913 10.5611L165.918 9.30306L173.313 9.33289L173.308 10.5909ZM179.292 13.097C181.66 13.1066 182.841 13.9727 182.834 15.6953C182.831 16.5453 182.539 17.2242 181.959 17.7318C181.379 18.2282 180.46 18.4738 179.202 18.4687L175.071 18.4521L175.108 9.34013L176.604 9.34616L176.589 13.0861L179.292 13.097ZM181.338 15.7743C181.34 15.219 181.143 14.8442 180.748 14.6499C180.363 14.4444 179.819 14.3402 179.117 14.3373L176.584 14.3271L176.572 17.2511L179.139 17.2614C179.774 17.264 180.295 17.1528 180.704 16.9278C181.125 16.7028 181.336 16.3183 181.338 15.7743ZM188.819 18.6775C188.014 18.6743 187.295 18.507 186.662 18.1758C186.04 17.8446 185.549 17.3326 185.189 16.6398C184.841 15.9471 184.669 15.0624 184.673 13.9857C184.678 12.8638 184.868 11.9522 185.245 11.251C185.622 10.5499 186.128 10.0362 186.764 9.71014C187.412 9.38408 188.143 9.2227 188.959 9.22599C189.424 9.22786 189.871 9.28067 190.302 9.3844C190.732 9.47681 191.083 9.59156 191.354 9.72865L190.89 10.9678C190.619 10.8647 190.302 10.7671 189.939 10.675C189.577 10.5828 189.237 10.5361 188.92 10.5348C187.129 10.5276 186.229 11.6743 186.22 13.975C186.216 15.0743 186.428 15.9195 186.856 16.5106C187.296 17.0903 187.946 17.382 188.807 17.3854C189.306 17.3875 189.743 17.3382 190.117 17.2377C190.503 17.1373 190.855 17.014 191.172 16.868L191.167 18.194C190.86 18.3514 190.52 18.469 190.146 18.5469C189.783 18.6361 189.34 18.6796 188.819 18.6775ZM193.894 18.528L192.16 18.521L194.776 14.7065C194.425 14.6144 194.086 14.4714 193.758 14.2774C193.43 14.0721 193.165 13.7933 192.962 13.4412C192.76 13.0777 192.66 12.6296 192.662 12.0969C192.665 11.2243 192.963 10.5625 193.554 10.1115C194.145 9.64924 194.928 9.42006 195.902 9.42399L199.982 9.44045L199.946 18.5524L198.45 18.5463L198.464 14.9254L196.254 14.9165L193.894 18.528ZM194.107 12.1198C194.104 12.6411 194.296 13.0329 194.68 13.2951C195.076 13.546 195.625 13.6729 196.327 13.6757L198.469 13.6844L198.481 10.6754L196.05 10.6656C195.359 10.6628 194.86 10.7968 194.553 11.0676C194.257 11.3384 194.108 11.6891 194.107 12.1198Z" fill="url(#paint0_linear)"/>
<path d="M38.8345 8.60352C38.8311 9.43085 38.5678 10.0871 38.0445 10.5724C37.5213 11.0462 36.823 11.3494 35.9498 11.4819L35.9496 11.5499C36.969 11.69 37.7441 12.0105 38.2747 12.5113C38.8054 13.0121 39.0691 13.6648 39.0658 14.4695C39.0615 15.5348 38.65 16.4002 37.8313 17.0655C37.0126 17.7309 35.7873 18.0603 34.1553 18.0537C33.498 18.0511 32.8692 17.9975 32.269 17.8931C31.68 17.8001 31.131 17.6279 30.622 17.3765L30.6276 15.9825C31.1593 16.234 31.7365 16.4346 32.3592 16.5845C32.9933 16.723 33.5881 16.7934 34.1434 16.7957C35.2314 16.8001 36.0539 16.5994 36.6108 16.1936C37.1792 15.7879 37.4648 15.2111 37.4678 14.4631C37.4709 13.6924 37.1445 13.1301 36.4886 12.7761C35.8327 12.4221 34.9154 12.2427 33.7368 12.238L32.0028 12.231L32.0079 10.956L33.6569 10.9627C34.8582 10.9675 35.7544 10.7728 36.3453 10.3785C36.9476 9.97293 37.2501 9.43014 37.2529 8.75015C37.2553 8.13815 37.0306 7.66691 36.5786 7.33642C36.1266 7.00592 35.5379 6.83922 34.8126 6.83629C34.0532 6.83323 33.4182 6.927 32.9074 7.11761C32.408 7.30826 31.9196 7.55563 31.4424 7.85971L30.7156 6.81977C31.193 6.47036 31.7779 6.17805 32.4702 5.94284C33.1738 5.69634 33.962 5.57485 34.8346 5.57837C36.1493 5.58367 37.1455 5.87102 37.8232 6.44043C38.5009 7.00983 38.838 7.73087 38.8345 8.60352ZM44.9014 8.66199C46.0121 8.66647 46.8328 8.91345 47.3635 9.40293C47.8942 9.89241 48.1574 10.6698 48.1531 11.7351L48.128 17.9401L47.04 17.9357L46.7563 16.6425L46.6883 16.6423C46.2896 17.1393 45.8688 17.506 45.4258 17.7422C44.9942 17.9784 44.393 18.095 43.6224 18.0919C42.7951 18.0886 42.1103 17.8705 41.568 17.4376C41.0258 16.9934 40.7566 16.3067 40.7603 15.3773C40.764 14.4707 41.1238 13.7751 41.8397 13.2907C42.5557 12.7949 43.6562 12.5273 45.141 12.488L46.6882 12.4432L46.6904 11.8992C46.6934 11.1399 46.5312 10.6122 46.2038 10.3163C45.8763 10.0203 45.4122 9.87106 44.8116 9.86864C44.3356 9.86672 43.8819 9.93856 43.4507 10.0842C43.0195 10.2184 42.6165 10.3755 42.2418 10.5553L41.7873 9.43144C42.1848 9.21771 42.6559 9.03827 43.2005 8.89314C43.7451 8.73666 44.3121 8.65962 44.9014 8.66199ZM45.3238 13.5257C44.1903 13.5665 43.4019 13.7447 42.9586 14.0602C42.5267 14.3758 42.3096 14.8226 42.3072 15.4006C42.3052 15.9106 42.4567 16.2852 42.7617 16.5244C43.0781 16.7637 43.4799 16.8843 43.9673 16.8863C44.7379 16.8894 45.3791 16.6823 45.8908 16.265C46.4025 15.8364 46.6602 15.1801 46.6637 14.2961L46.667 13.4802L45.3238 13.5257ZM55.3147 8.68699C56.4367 8.69152 57.3361 9.08615 58.013 9.87088C58.7011 10.6557 59.042 11.8357 59.0357 13.411C59.0294 14.9637 58.679 16.141 57.9844 16.9428C57.3012 17.7447 56.3929 18.1434 55.2596 18.1388C54.5569 18.136 53.9738 18.0033 53.5102 17.7408C53.0579 17.467 52.7022 17.1539 52.443 16.8015L52.341 16.8011C52.3628 16.9938 52.3845 17.2376 52.406 17.5323C52.4275 17.8271 52.4378 18.0821 52.4369 18.2975L52.4218 22.0374L50.9259 22.0314L50.9791 8.83951L52.203 8.84444L52.402 10.0863L52.47 10.0865C52.7436 9.69096 53.102 9.35807 53.5451 9.08786C53.9882 8.81764 54.578 8.68402 55.3147 8.68699ZM55.0376 9.94388C54.1083 9.94014 53.4499 10.1981 53.0625 10.7179C52.6864 11.2377 52.4849 12.0303 52.4579 13.0955L52.4567 13.3845C52.4522 14.5065 52.63 15.3742 52.9902 15.9877C53.3618 16.5898 54.0463 16.8929 55.0436 16.897C55.5989 16.8992 56.0529 16.748 56.4054 16.4435C56.7693 16.1389 57.0373 15.7263 57.2094 15.2057C57.3929 14.6738 57.486 14.0678 57.4888 13.3878C57.493 12.3451 57.2923 11.5113 56.8869 10.8863C56.4927 10.2614 55.8763 9.94727 55.0376 9.94388ZM64.9576 8.72588C65.7396 8.72904 66.4076 8.90173 66.9615 9.24397C67.5268 9.58625 67.9556 10.0697 68.2477 10.6942C68.5512 11.3074 68.7013 12.0277 68.698 12.855L68.6944 13.756L62.4554 13.7308C62.4739 14.7622 62.7314 15.551 63.2279 16.097C63.7357 16.6317 64.443 16.9009 65.3496 16.9045C65.9276 16.9069 66.4378 16.8579 66.8802 16.7577C67.334 16.6462 67.7993 16.4894 68.2761 16.2873L68.2709 17.5963C67.8054 17.7984 67.3458 17.9439 66.8921 18.0328C66.4384 18.1329 65.8998 18.1818 65.2765 18.1792C64.4152 18.1758 63.6509 17.997 62.9836 17.643C62.3277 17.289 61.8142 16.7656 61.443 16.0728C61.0831 15.3686 60.9052 14.5123 60.9093 13.5036C60.9133 12.5063 61.0811 11.6513 61.4127 10.9386C61.7555 10.226 62.2281 9.67821 62.8303 9.29531C63.4438 8.91245 64.153 8.72264 64.9576 8.72588ZM64.9357 9.9498C64.2217 9.94692 63.6541 10.177 63.2329 10.6399C62.8231 11.0916 62.5768 11.7253 62.4942 12.541L67.1352 12.5597C67.1269 11.789 66.9481 11.1649 66.5987 10.6875C66.2494 10.1988 65.695 9.95287 64.9357 9.9498ZM76.5925 8.94281L76.5875 10.2008L72.5245 10.1844L72.4928 18.0383L70.9968 18.0323L71.0336 8.92039L76.5925 8.94281ZM79.7766 14.5147C79.776 14.6507 79.7695 14.8547 79.7571 15.1266C79.7447 15.3986 79.7266 15.6705 79.7028 15.9424C79.6904 16.2144 79.6782 16.4296 79.6662 16.5883L84.576 8.97501L86.412 8.98241L86.3752 18.0943L84.9812 18.0887L85.0029 12.7168C85.0036 12.5354 85.0046 12.2974 85.0058 12.0028C85.0183 11.7081 85.0308 11.4192 85.0433 11.1359C85.0558 10.8413 85.068 10.6203 85.0799 10.4731L80.2043 18.0694L78.3513 18.062L78.388 8.95005L79.799 8.95574L79.7766 14.5147ZM92.9293 18.2908C92.1246 18.2875 91.4056 18.1203 90.7723 17.7891C90.1503 17.4579 89.6594 16.9459 89.2995 16.2531C88.9509 15.5604 88.7788 14.6757 88.7832 13.599C88.7877 12.477 88.9784 11.5654 89.3552 10.8643C89.732 10.1631 90.2385 9.64951 90.8744 9.32341C91.5218 8.99735 92.2534 8.83597 93.0694 8.83926C93.5341 8.84113 93.9815 8.89394 94.4118 8.99767C94.8421 9.09008 95.193 9.20483 95.4644 9.34192L95.0004 10.5811C94.7288 10.478 94.4119 10.3804 94.0496 10.2882C93.6873 10.1961 93.3475 10.1494 93.0301 10.1481C91.2395 10.1409 90.3395 11.2876 90.3302 13.5883C90.3258 14.6876 90.5377 15.5328 90.966 16.1238C91.4057 16.7036 92.0562 16.9952 92.9175 16.9987C93.4162 17.0007 93.8527 16.9515 94.2271 16.851C94.6128 16.7505 94.9647 16.6273 95.2826 16.4812L95.2773 17.8072C94.9706 17.9647 94.6301 18.0823 94.2558 18.1601C93.8928 18.2493 93.4506 18.2929 92.9293 18.2908ZM103.765 10.3104L100.79 10.2984L100.758 18.1523L99.2789 18.1464L99.3106 10.2924L96.3696 10.2806L96.3747 9.02259L103.77 9.05241L103.765 10.3104ZM109.9 8.90714C111.022 8.91166 111.922 9.30629 112.598 10.091C113.287 10.8758 113.628 12.0559 113.621 13.6312C113.615 15.1838 113.265 16.3611 112.57 17.163C111.887 17.9649 110.978 18.3636 109.845 18.359C109.142 18.3562 108.559 18.2235 108.096 17.9609C107.643 17.6871 107.288 17.374 107.028 17.0216L106.926 17.0212C106.948 17.214 106.97 17.4577 106.992 17.7525C107.013 18.0472 107.023 18.3023 107.022 18.5176L107.007 22.2576L105.511 22.2515L105.565 9.05965L106.789 9.06459L106.988 10.3064L107.056 10.3067C107.329 9.91111 107.687 9.57822 108.131 9.308C108.574 9.03779 109.164 8.90417 109.9 8.90714ZM109.623 10.164C108.694 10.1603 108.035 10.4183 107.648 10.9381C107.272 11.4579 107.07 12.2504 107.043 13.3157L107.042 13.6047C107.038 14.7266 107.216 15.5944 107.576 16.2078C107.947 16.81 108.632 17.1131 109.629 17.1171C110.184 17.1194 110.638 16.9682 110.991 16.6636C111.355 16.3591 111.623 15.9465 111.795 15.4258C111.978 14.8939 112.072 14.2879 112.074 13.6079C112.078 12.5653 111.878 11.7315 111.472 11.1065C111.078 10.4816 110.462 10.1674 109.623 10.164ZM117.412 14.6665C117.411 14.8025 117.405 15.0065 117.393 15.2784C117.38 15.5504 117.362 15.8223 117.338 16.0942C117.326 16.3661 117.314 16.5814 117.302 16.7401L122.211 9.12679L124.047 9.1342L124.011 18.2461L122.617 18.2405L122.638 12.8685C122.639 12.6872 122.64 12.4492 122.641 12.1545C122.654 11.8599 122.666 11.571 122.679 11.2877C122.691 10.9931 122.703 10.7721 122.715 10.6248L117.84 18.2212L115.987 18.2138L116.023 9.10184L117.434 9.10753L117.412 14.6665ZM131.283 8.99338C132.405 8.9979 133.304 9.39253 133.981 10.1773C134.669 10.962 135.01 12.1421 135.004 13.7174C134.998 15.2701 134.647 16.4473 133.953 17.2492C133.269 18.0511 132.361 18.4498 131.228 18.4452C130.525 18.4424 129.942 18.3097 129.478 18.0472C129.026 17.7733 128.67 17.4602 128.411 17.1079L128.309 17.1074C128.331 17.3002 128.353 17.544 128.374 17.8387C128.396 18.1335 128.406 18.3885 128.405 18.6038L128.39 22.3438L126.894 22.3378L126.947 9.14589L128.171 9.15083L128.37 10.3926L128.438 10.3929C128.712 9.99735 129.07 9.66446 129.513 9.39424C129.956 9.12403 130.546 8.99041 131.283 8.99338ZM131.006 10.2503C130.076 10.2465 129.418 10.5045 129.031 11.0243C128.655 11.5441 128.453 12.3367 128.426 13.4019L128.425 13.6909C128.42 14.8129 128.598 15.6806 128.958 16.2941C129.33 16.8962 130.014 17.1993 131.012 17.2034C131.567 17.2056 132.021 17.0544 132.374 16.7498C132.737 16.4453 133.005 16.0327 133.178 15.5121C133.361 14.9801 133.454 14.3742 133.457 13.6942C133.461 12.6515 133.26 11.8177 132.855 11.1927C132.461 10.5678 131.844 10.2537 131.006 10.2503ZM145.31 13.759C145.304 15.2663 144.914 16.4321 144.14 17.2563C143.377 18.0806 142.344 18.4901 141.041 18.4848C140.236 18.4816 139.517 18.2973 138.884 17.9321C138.262 17.5556 137.771 17.0153 137.411 16.3112C137.052 15.5957 136.874 14.7336 136.878 13.725C136.884 12.2177 137.268 11.0575 138.031 10.2446C138.793 9.43167 139.826 9.02783 141.13 9.03309C141.957 9.03643 142.682 9.22635 143.303 9.60286C143.937 9.96808 144.428 10.5027 144.776 11.2068C145.136 11.8996 145.314 12.7503 145.31 13.759ZM138.425 13.7312C138.42 14.8079 138.627 15.6644 139.043 16.3007C139.472 16.9258 140.15 17.2402 141.08 17.244C141.998 17.2477 142.673 16.9387 143.106 16.3171C143.54 15.6842 143.758 14.8294 143.763 13.7527C143.767 12.6761 143.555 11.8309 143.127 11.2172C142.699 10.6034 142.02 10.2947 141.091 10.2909C140.161 10.2872 139.486 10.5905 139.064 11.2008C138.642 11.8111 138.429 12.6546 138.425 13.7312ZM155.017 11.5541C155.014 12.1208 154.843 12.5621 154.501 12.878C154.16 13.194 153.723 13.4076 153.19 13.5188L153.189 13.5868C153.756 13.6684 154.248 13.8744 154.666 14.2047C155.084 14.5237 155.292 15.0233 155.289 15.7032C155.286 16.4739 154.994 17.1131 154.414 17.6207C153.846 18.1171 152.904 18.3627 151.589 18.3573L147.662 18.3415L147.699 9.22959L151.609 9.24535C152.255 9.24796 152.833 9.32396 153.342 9.47335C153.863 9.61145 154.27 9.85109 154.563 10.1923C154.868 10.5222 155.019 10.9761 155.017 11.5541ZM153.503 11.735C153.505 11.3043 153.347 10.992 153.031 10.7981C152.726 10.5929 152.222 10.4888 151.519 10.486L149.19 10.4766L149.18 12.9756L151.237 12.9839C152.744 12.99 153.5 12.5737 153.503 11.735ZM153.742 15.697C153.744 15.1757 153.547 14.8009 153.151 14.5726C152.756 14.3444 152.173 14.2287 151.402 14.2256L149.175 14.2166L149.163 17.1406L151.424 17.1497C152.172 17.1527 152.745 17.0473 153.142 16.8336C153.54 16.6085 153.74 16.2297 153.742 15.697ZM160.945 9.13001C162.056 9.13449 162.877 9.38147 163.407 9.87094C163.938 10.3604 164.201 11.1378 164.197 12.2031L164.172 18.4081L163.084 18.4037L162.8 17.1106L162.732 17.1103C162.334 17.6073 161.913 17.974 161.47 18.2102C161.038 18.4465 160.437 18.563 159.666 18.5599C158.839 18.5566 158.154 18.3385 157.612 17.9056C157.07 17.4614 156.801 16.7747 156.804 15.8454C156.808 14.9387 157.168 14.2431 157.884 13.7587C158.6 13.2629 159.7 12.9954 161.185 12.956L162.732 12.9112L162.734 12.3672C162.737 11.6079 162.575 11.0803 162.248 10.7843C161.92 10.4883 161.456 10.3391 160.856 10.3367C160.38 10.3347 159.926 10.4066 159.495 10.5522C159.063 10.6864 158.66 10.8435 158.286 11.0233L157.831 9.89945C158.229 9.68572 158.7 9.50629 159.244 9.36115C159.789 9.20468 160.356 9.12763 160.945 9.13001ZM161.368 13.9938C160.234 14.0345 159.446 14.2127 159.003 14.5282C158.571 14.8438 158.354 15.2906 158.351 15.8686C158.349 16.3786 158.501 16.7532 158.806 16.9924C159.122 17.2317 159.524 17.3523 160.011 17.3543C160.782 17.3574 161.423 17.1503 161.935 16.7331C162.446 16.3045 162.704 15.6482 162.708 14.7642L162.711 13.9482L161.368 13.9938ZM173.308 10.5909L170.333 10.5789L170.301 18.4328L168.822 18.4269L168.854 10.5729L165.913 10.5611L165.918 9.30306L173.313 9.33289L173.308 10.5909ZM179.292 13.097C181.66 13.1066 182.841 13.9727 182.834 15.6953C182.831 16.5453 182.539 17.2242 181.959 17.7318C181.379 18.2282 180.46 18.4738 179.202 18.4687L175.071 18.4521L175.108 9.34013L176.604 9.34616L176.589 13.0861L179.292 13.097ZM181.338 15.7743C181.34 15.219 181.143 14.8442 180.748 14.6499C180.363 14.4444 179.819 14.3402 179.117 14.3373L176.584 14.3271L176.572 17.2511L179.139 17.2614C179.774 17.264 180.295 17.1528 180.704 16.9278C181.125 16.7028 181.336 16.3183 181.338 15.7743ZM188.819 18.6775C188.014 18.6743 187.295 18.507 186.662 18.1758C186.04 17.8446 185.549 17.3326 185.189 16.6398C184.841 15.9471 184.669 15.0624 184.673 13.9857C184.678 12.8638 184.868 11.9522 185.245 11.251C185.622 10.5499 186.128 10.0362 186.764 9.71014C187.412 9.38408 188.143 9.2227 188.959 9.22599C189.424 9.22786 189.871 9.28067 190.302 9.3844C190.732 9.47681 191.083 9.59156 191.354 9.72865L190.89 10.9678C190.619 10.8647 190.302 10.7671 189.939 10.675C189.577 10.5828 189.237 10.5361 188.92 10.5348C187.129 10.5276 186.229 11.6743 186.22 13.975C186.216 15.0743 186.428 15.9195 186.856 16.5106C187.296 17.0903 187.946 17.382 188.807 17.3854C189.306 17.3875 189.743 17.3382 190.117 17.2377C190.503 17.1373 190.855 17.014 191.172 16.868L191.167 18.194C190.86 18.3514 190.52 18.469 190.146 18.5469C189.783 18.6361 189.34 18.6796 188.819 18.6775ZM193.894 18.528L192.16 18.521L194.776 14.7065C194.425 14.6144 194.086 14.4714 193.758 14.2774C193.43 14.0721 193.165 13.7933 192.962 13.4412C192.76 13.0777 192.66 12.6296 192.662 12.0969C192.665 11.2243 192.963 10.5625 193.554 10.1115C194.145 9.64924 194.928 9.42006 195.902 9.42399L199.982 9.44045L199.946 18.5524L198.45 18.5463L198.464 14.9254L196.254 14.9165L193.894 18.528ZM194.107 12.1198C194.104 12.6411 194.296 13.0329 194.68 13.2951C195.076 13.546 195.625 13.6729 196.327 13.6757L198.469 13.6844L198.481 10.6754L196.05 10.6656C195.359 10.6628 194.86 10.7968 194.553 11.0676C194.257 11.3384 194.108 11.6891 194.107 12.1198Z" fill="url(#paint1_linear)"/>
<g filter="url(#filter0_d)">
<path fill-rule="evenodd" clip-rule="evenodd" d="M14 2C8.48 2 4 6.48 4 12C4 17.52 8.48 22 14 22C19.52 22 24 17.52 24 12C24 6.48 19.52 2 14 2ZM9.07 18.28C9.5 17.38 12.12 16.5 14 16.5C15.88 16.5 18.51 17.38 18.93 18.28C17.57 19.36 15.86 20 14 20C12.14 20 10.43 19.36 9.07 18.28ZM20.36 16.83C18.93 15.09 15.46 14.5 14 14.5C12.54 14.5 9.07 15.09 7.64 16.83C6.62 15.49 6 13.82 6 12C6 7.59 9.59 4 14 4C18.41 4 22 7.59 22 12C22 13.82 21.38 15.49 20.36 16.83ZM14 6C12.06 6 10.5 7.56 10.5 9.5C10.5 11.44 12.06 13 14 13C15.94 13 17.5 11.44 17.5 9.5C17.5 7.56 15.94 6 14 6ZM14 11C13.17 11 12.5 10.33 12.5 9.5C12.5 8.67 13.17 8 14 8C14.83 8 15.5 8.67 15.5 9.5C15.5 10.33 14.83 11 14 11Z" fill="#FCBCBC"/>
</g>
<mask id="mask0" mask-type="alpha" maskUnits="userSpaceOnUse" x="3" y="1" width="22" height="22">
<path fill-rule="evenodd" clip-rule="evenodd" d="M14 2C8.48 2 4 6.48 4 12C4 17.52 8.48 22 14 22C19.52 22 24 17.52 24 12C24 6.48 19.52 2 14 2ZM9.07 18.28C9.5 17.38 12.12 16.5 14 16.5C15.88 16.5 18.51 17.38 18.93 18.28C17.57 19.36 15.86 20 14 20C12.14 20 10.43 19.36 9.07 18.28ZM20.36 16.83C18.93 15.09 15.46 14.5 14 14.5C12.54 14.5 9.07 15.09 7.64 16.83C6.62 15.49 6 13.82 6 12C6 7.59 9.59 4 14 4C18.41 4 22 7.59 22 12C22 13.82 21.38 15.49 20.36 16.83V16.83ZM14 6C12.06 6 10.5 7.56 10.5 9.5C10.5 11.44 12.06 13 14 13C15.94 13 17.5 11.44 17.5 9.5C17.5 7.56 15.94 6 14 6ZM14 11C13.17 11 12.5 10.33 12.5 9.5C12.5 8.67 13.17 8 14 8C14.83 8 15.5 8.67 15.5 9.5C15.5 10.33 14.83 11 14 11Z" fill="white"/>
<path d="M9.07 18.28L8.61885 18.0644L8.44713 18.4239L8.75906 18.6716L9.07 18.28ZM18.93 18.28L19.2409 18.6716L19.55 18.4262L19.3831 18.0686L18.93 18.28ZM7.64 16.83L7.24215 17.1328L7.62497 17.6358L8.02629 17.1475L7.64 16.83ZM14 1.5C8.20386 1.5 3.5 6.20386 3.5 12H4.5C4.5 6.75614 8.75614 2.5 14 2.5V1.5ZM3.5 12C3.5 17.7961 8.20386 22.5 14 22.5V21.5C8.75614 21.5 4.5 17.2439 4.5 12H3.5ZM14 22.5C19.7961 22.5 24.5 17.7961 24.5 12H23.5C23.5 17.2439 19.2439 21.5 14 21.5V22.5ZM24.5 12C24.5 6.20386 19.7961 1.5 14 1.5V2.5C19.2439 2.5 23.5 6.75614 23.5 12H24.5ZM9.52115 18.4956C9.5662 18.4013 9.71102 18.2402 10.0218 18.0465C10.3175 17.8622 10.7085 17.6822 11.1574 17.5241C12.058 17.2068 13.1265 17 14 17V16C12.9935 16 11.812 16.2332 10.8251 16.5809C10.3302 16.7553 9.86812 16.964 9.4929 17.1978C9.13273 17.4223 8.7888 17.7087 8.61885 18.0644L9.52115 18.4956ZM14 17C14.8736 17 15.9447 17.2068 16.8465 17.5242C17.2961 17.6823 17.6872 17.8623 17.9822 18.0464C18.2927 18.2401 18.4343 18.4001 18.4769 18.4914L19.3831 18.0686C19.2157 17.7099 18.8711 17.4224 18.5116 17.198C18.1366 16.964 17.6739 16.7552 17.1785 16.5808C16.1903 16.2332 15.0064 16 14 16V17ZM18.6191 17.8884C17.3442 18.9008 15.7429 19.5 14 19.5V20.5C15.9771 20.5 17.7958 19.8192 19.2409 18.6716L18.6191 17.8884ZM14 19.5C12.2571 19.5 10.6558 18.9008 9.38094 17.8884L8.75906 18.6716C10.2042 19.8192 12.0229 20.5 14 20.5V19.5ZM20.7463 16.5125C19.9353 15.5258 18.5926 14.9072 17.3336 14.5332C16.0611 14.1552 14.7807 14 14 14V15C14.6793 15 15.8639 15.1398 17.0489 15.4918C18.2474 15.8478 19.3547 16.3942 19.9737 17.1475L20.7463 16.5125ZM14 14C13.2193 14 11.9389 14.1552 10.6664 14.5332C9.40736 14.9072 8.06469 15.5258 7.25371 16.5125L8.02629 17.1475C8.64531 16.3942 9.75264 15.8478 10.9511 15.4918C12.1361 15.1398 13.3207 15 14 15V14ZM8.03785 16.5272C7.0801 15.2689 6.5 13.7041 6.5 12H5.5C5.5 13.9359 6.1599 15.7111 7.24215 17.1328L8.03785 16.5272ZM6.5 12C6.5 7.86614 9.86614 4.5 14 4.5V3.5C9.31386 3.5 5.5 7.31386 5.5 12H6.5ZM14 4.5C18.1339 4.5 21.5 7.86614 21.5 12H22.5C22.5 7.31386 18.6861 3.5 14 3.5V4.5ZM21.5 12C21.5 13.7041 20.9199 15.2689 19.9621 16.5272L20.7579 17.1328C21.8401 15.7111 22.5 13.9359 22.5 12H21.5ZM14 5.5C11.7839 5.5 10 7.28386 10 9.5H11C11 7.83614 12.3361 6.5 14 6.5V5.5ZM10 9.5C10 11.7161 11.7839 13.5 14 13.5V12.5C12.3361 12.5 11 11.1639 11 9.5H10ZM14 13.5C16.2161 13.5 18 11.7161 18 9.5H17C17 11.1639 15.6639 12.5 14 12.5V13.5ZM18 9.5C18 7.28386 16.2161 5.5 14 5.5V6.5C15.6639 6.5 17 7.83614 17 9.5H18ZM14 10.5C13.4461 10.5 13 10.0539 13 9.5H12C12 10.6061 12.8939 11.5 14 11.5V10.5ZM13 9.5C13 8.94614 13.4461 8.5 14 8.5V7.5C12.8939 7.5 12 8.39386 12 9.5H13ZM14 8.5C14.5539 8.5 15 8.94614 15 9.5H16C16 8.39386 15.1061 7.5 14 7.5V8.5ZM15 9.5C15 10.0539 14.5539 10.5 14 10.5V11.5C15.1061 11.5 16 10.6061 16 9.5H15Z" fill="white"/>
</mask>
<g mask="url(#mask0)">
</g>
<defs>
<filter id="filter0_d" x="0" y="2" width="28" height="28" filterUnits="userSpaceOnUse" color-interpolation-filters="sRGB">
<feFlood flood-opacity="0" result="BackgroundImageFix"/>
<feColorMatrix in="SourceAlpha" type="matrix" values="0 0 0 0 0 0 0 0 0 0 0 0 0 0 0 0 0 0 127 0"/>
<feOffset dy="4"/>
<feGaussianBlur stdDeviation="2"/>
<feColorMatrix type="matrix" values="0 0 0 0 0 0 0 0 0 0 0 0 0 0 0 0 0 0 0.25 0"/>
<feBlend mode="normal" in2="BackgroundImageFix" result="effect1_dropShadow"/>
<feBlend mode="normal" in="SourceGraphic" in2="effect1_dropShadow" result="shape"/>
</filter>
<linearGradient id="paint0_linear" x1="116.042" y1="1.21385" x2="115.949" y2="24.2137" gradientUnits="userSpaceOnUse">
<stop stop-color="#FB3636"/>
<stop offset="1" stop-color="white" stop-opacity="0"/>
</linearGradient>
<linearGradient id="paint1_linear" x1="116.042" y1="1.21385" x2="115.949" y2="24.2137" gradientUnits="userSpaceOnUse">
<stop stop-color="#FB3636"/>
<stop offset="1" stop-color="white" stop-opacity="0"/>
</linearGradient>
</defs>
</svg>
