<svg width="100" height="23" viewBox="0 0 100 23" fill="none" xmlns="http://www.w3.org/2000/svg">
<path d="M32.08 17.054C31.972 17.054 31.888 17.018 31.828 16.946C31.78 16.862 31.756 16.766 31.756 16.658C31.768 16.478 31.804 16.37 31.864 16.334C31.924 16.298 32.038 16.28 32.206 16.28C32.554 16.28 32.812 16.22 32.98 16.1C33.148 15.968 33.25 15.812 33.286 15.632C33.334 15.44 33.364 15.194 33.376 14.894V7.748C33.364 7.448 33.334 7.208 33.286 7.028C33.25 6.836 33.148 6.68 32.98 6.56C32.812 6.428 32.554 6.362 32.206 6.362H32.098C31.978 6.362 31.894 6.344 31.846 6.308C31.798 6.26 31.768 6.152 31.756 5.984C31.756 5.876 31.78 5.786 31.828 5.714C31.888 5.63 31.972 5.588 32.08 5.588C32.86 5.624 33.568 5.642 34.204 5.642H36.742C37.402 5.642 37.936 5.69 38.344 5.786C38.752 5.882 39.118 6.032 39.442 6.236C39.754 6.44 40 6.722 40.18 7.082C40.36 7.43 40.45 7.814 40.45 8.234C40.45 8.978 40.204 9.572 39.712 10.016C39.232 10.448 38.668 10.742 38.02 10.898V10.952C38.644 10.952 39.208 11.078 39.712 11.33C40.228 11.57 40.624 11.9 40.9 12.32C41.188 12.728 41.332 13.172 41.332 13.652C41.332 14.468 41.08 15.128 40.576 15.632C40.084 16.136 39.46 16.496 38.704 16.712C37.96 16.916 37.186 17.018 36.382 17.018L34.222 17C33.574 17 32.86 17.018 32.08 17.054ZM35.914 10.592C36.394 10.592 36.808 10.556 37.156 10.484C37.516 10.412 37.834 10.22 38.11 9.908C38.386 9.596 38.524 9.11 38.524 8.45C38.524 7.022 37.822 6.308 36.418 6.308H35.158V10.592H35.914ZM36.454 16.298C37.342 16.286 38.05 16.07 38.578 15.65C39.118 15.218 39.388 14.516 39.388 13.544C39.328 12.896 39.022 12.362 38.47 11.942C37.93 11.522 37.072 11.312 35.896 11.312H35.158V14.894C35.158 15.302 35.194 15.608 35.266 15.812C35.35 16.004 35.476 16.136 35.644 16.208C35.824 16.268 36.094 16.298 36.454 16.298ZM42.1053 17.054C42.0213 17.054 41.9553 17.018 41.9073 16.946C41.8593 16.862 41.8353 16.778 41.8353 16.694C41.8473 16.55 41.8773 16.46 41.9253 16.424C41.9733 16.388 42.0453 16.37 42.1413 16.37C42.4053 16.37 42.6213 16.334 42.7893 16.262C42.9573 16.19 43.1013 16.094 43.2213 15.974C43.3413 15.854 43.5333 15.632 43.7973 15.308C44.0973 14.972 44.7033 14.24 45.6153 13.112L43.5633 10.214C43.4073 10.01 43.2393 9.854 43.0593 9.746C42.8913 9.626 42.6813 9.542 42.4293 9.494C42.3933 9.482 42.3273 9.47 42.2313 9.458C42.1353 9.446 42.0753 9.416 42.0513 9.368C42.0273 9.32 42.0153 9.236 42.0153 9.116C42.0153 8.972 42.0513 8.882 42.1233 8.846C42.2073 8.81 42.3033 8.792 42.4113 8.792C42.5313 8.78 42.6093 8.774 42.6453 8.774C43.8693 8.714 44.7573 9.05 45.3093 9.782L45.6513 10.286C45.9633 10.814 46.3053 11.324 46.6773 11.816L47.8833 10.25C48.0873 9.974 48.1893 9.782 48.1893 9.674C48.1893 9.602 48.1353 9.554 48.0273 9.53C47.9193 9.506 47.7213 9.488 47.4333 9.476H47.3253C47.2293 9.476 47.1573 9.458 47.1093 9.422C47.0733 9.386 47.0493 9.296 47.0373 9.152C47.0373 9.068 47.0553 8.99 47.0913 8.918C47.1393 8.834 47.2053 8.792 47.2893 8.792C47.9733 8.828 48.4773 8.846 48.8013 8.846C49.1373 8.846 49.6533 8.828 50.3493 8.792C50.4333 8.792 50.4993 8.834 50.5473 8.918C50.5953 8.99 50.6193 9.068 50.6193 9.152C50.6073 9.284 50.5773 9.368 50.5293 9.404C50.4813 9.44 50.4213 9.464 50.3493 9.476C50.2893 9.476 50.2473 9.476 50.2233 9.476C49.8753 9.488 49.6113 9.56 49.4313 9.692C49.2633 9.812 49.0053 10.094 48.6573 10.538C48.5373 10.67 48.3453 10.91 48.0813 11.258C47.6133 11.846 47.3013 12.236 47.1453 12.428C48.1293 13.7 48.8613 14.66 49.3413 15.308C49.5693 15.632 49.7973 15.89 50.0253 16.082C50.2533 16.274 50.5053 16.37 50.7813 16.37H50.8893C50.9853 16.37 51.0573 16.388 51.1053 16.424C51.1533 16.46 51.1833 16.55 51.1953 16.694C51.1953 16.79 51.1653 16.874 51.1053 16.946C51.0573 17.018 50.9913 17.054 50.9073 17.054C50.1993 17.018 49.6233 17 49.1793 17C48.6153 17 47.9793 17.018 47.2713 17.054C47.1873 17.054 47.1153 17.018 47.0553 16.946C47.0073 16.874 46.9833 16.79 46.9833 16.694C46.9953 16.538 47.0253 16.448 47.0733 16.424C47.1333 16.388 47.2413 16.37 47.3973 16.37C47.6493 16.37 47.7753 16.286 47.7753 16.118C47.7753 15.998 47.6913 15.824 47.5233 15.596L46.1193 13.724L44.5713 15.596C44.3673 15.86 44.2653 16.04 44.2653 16.136C44.2653 16.22 44.3253 16.28 44.4453 16.316C44.5653 16.352 44.7573 16.37 45.0213 16.37H45.1293C45.2253 16.37 45.2913 16.388 45.3273 16.424C45.3753 16.46 45.4053 16.55 45.4173 16.694C45.4173 16.778 45.3933 16.862 45.3453 16.946C45.3093 17.018 45.2493 17.054 45.1653 17.054C44.4813 17.018 43.9773 17 43.6533 17C43.3293 17 42.8133 17.018 42.1053 17.054ZM55.514 17.216C54.698 17.216 53.972 17.024 53.336 16.64C52.7 16.244 52.202 15.728 51.842 15.092C51.494 14.444 51.32 13.76 51.32 13.04C51.32 12.14 51.53 11.36 51.95 10.7C52.37 10.028 52.904 9.518 53.552 9.17C54.2 8.81 54.854 8.63 55.514 8.63C56.33 8.63 57.056 8.828 57.692 9.224C58.328 9.608 58.82 10.124 59.168 10.772C59.528 11.408 59.708 12.086 59.708 12.806C59.708 13.706 59.492 14.492 59.06 15.164C58.64 15.824 58.106 16.334 57.458 16.694C56.81 17.042 56.162 17.216 55.514 17.216ZM55.514 16.55C56.33 16.55 56.924 16.202 57.296 15.506C57.68 14.81 57.872 13.91 57.872 12.806C57.872 11.774 57.674 10.934 57.278 10.286C56.894 9.626 56.306 9.296 55.514 9.296C54.686 9.296 54.086 9.638 53.714 10.322C53.342 11.006 53.156 11.9 53.156 13.004C53.156 14.036 53.348 14.888 53.732 15.56C54.116 16.22 54.71 16.55 55.514 16.55ZM60.4024 19.322C60.2944 19.322 60.1984 19.292 60.1144 19.232C60.0424 19.184 60.0064 19.106 60.0064 18.998V16.712C60.0064 16.436 60.1444 16.298 60.4204 16.298H60.8884C61.5004 15.614 61.9324 14.816 62.1844 13.904C62.4484 12.98 62.6104 11.936 62.6704 10.772C62.6704 10.46 62.6584 10.232 62.6344 10.088C62.6104 9.944 62.5324 9.818 62.4004 9.71C62.2684 9.602 62.0464 9.548 61.7344 9.548H61.6264C61.5304 9.548 61.4584 9.53 61.4104 9.494C61.3624 9.458 61.3324 9.368 61.3204 9.224C61.3204 9.116 61.3444 9.02 61.3924 8.936C61.4404 8.84 61.5124 8.792 61.6084 8.792C62.3044 8.828 62.9224 8.846 63.4624 8.846H67.0084C67.5604 8.846 68.1844 8.828 68.8804 8.792C68.9764 8.792 69.0484 8.84 69.0964 8.936C69.1444 9.02 69.1684 9.116 69.1684 9.224C69.1564 9.38 69.1204 9.476 69.0604 9.512C69.0124 9.536 68.9104 9.548 68.7544 9.548C68.4424 9.548 68.2204 9.602 68.0884 9.71C67.9564 9.818 67.8784 9.944 67.8544 10.088C67.8304 10.232 67.8184 10.46 67.8184 10.772V15.056C67.8184 15.404 67.8364 15.656 67.8724 15.812C67.9084 15.968 67.9984 16.088 68.1424 16.172C68.2984 16.256 68.5444 16.298 68.8804 16.298C69.1564 16.298 69.2944 16.436 69.2944 16.712V18.998C69.2944 19.106 69.2524 19.184 69.1684 19.232C69.0964 19.292 69.0064 19.322 68.8984 19.322C68.7664 19.322 68.6464 19.298 68.5384 19.25C68.4424 19.202 68.3884 19.13 68.3764 19.034C68.2924 18.47 68.2024 18.056 68.1064 17.792C68.0224 17.528 67.8844 17.33 67.6924 17.198C67.5004 17.066 67.2124 17 66.8284 17H62.4724C62.0884 17 61.8004 17.066 61.6084 17.198C61.4164 17.33 61.2724 17.528 61.1764 17.792C61.0924 18.056 61.0084 18.47 60.9244 19.034C60.9124 19.13 60.8524 19.202 60.7444 19.25C60.6484 19.298 60.5344 19.322 60.4024 19.322ZM65.4424 16.298C65.7064 16.298 65.8924 16.244 66.0004 16.136C66.1204 16.028 66.1804 15.788 66.1804 15.416V9.422H64.4704C64.0744 9.422 63.8224 9.506 63.7144 9.674C63.6184 9.842 63.5704 10.034 63.5704 10.25C63.5704 10.454 63.5704 10.586 63.5704 10.646C63.4984 11.966 63.3484 13.076 63.1204 13.976C62.8924 14.876 62.4964 15.65 61.9324 16.298H65.4424Z" fill="#FFFBFB"/>
<g filter="url(#filter0_d)">
<path fill-rule="evenodd" clip-rule="evenodd" d="M14 1C8.48 1 4 5.48 4 11C4 16.52 8.48 21 14 21C19.52 21 24 16.52 24 11C24 5.48 19.52 1 14 1ZM9.07 17.28C9.5 16.38 12.12 15.5 14 15.5C15.88 15.5 18.51 16.38 18.93 17.28C17.57 18.36 15.86 19 14 19C12.14 19 10.43 18.36 9.07 17.28ZM20.36 15.83C18.93 14.09 15.46 13.5 14 13.5C12.54 13.5 9.07 14.09 7.64 15.83C6.62 14.49 6 12.82 6 11C6 6.59 9.59 3 14 3C18.41 3 22 6.59 22 11C22 12.82 21.38 14.49 20.36 15.83V15.83ZM14 5C12.06 5 10.5 6.56 10.5 8.5C10.5 10.44 12.06 12 14 12C15.94 12 17.5 10.44 17.5 8.5C17.5 6.56 15.94 5 14 5ZM14 10C13.17 10 12.5 9.33 12.5 8.5C12.5 7.67 13.17 7 14 7C14.83 7 15.5 7.67 15.5 8.5C15.5 9.33 14.83 10 14 10Z" fill="white"/>
<path fill-rule="evenodd" clip-rule="evenodd" d="M14 1C8.48 1 4 5.48 4 11C4 16.52 8.48 21 14 21C19.52 21 24 16.52 24 11C24 5.48 19.52 1 14 1ZM9.07 17.28C9.5 16.38 12.12 15.5 14 15.5C15.88 15.5 18.51 16.38 18.93 17.28C17.57 18.36 15.86 19 14 19C12.14 19 10.43 18.36 9.07 17.28ZM20.36 15.83C18.93 14.09 15.46 13.5 14 13.5C12.54 13.5 9.07 14.09 7.64 15.83C6.62 14.49 6 12.82 6 11C6 6.59 9.59 3 14 3C18.41 3 22 6.59 22 11C22 12.82 21.38 14.49 20.36 15.83V15.83ZM14 5C12.06 5 10.5 6.56 10.5 8.5C10.5 10.44 12.06 12 14 12C15.94 12 17.5 10.44 17.5 8.5C17.5 6.56 15.94 5 14 5ZM14 10C13.17 10 12.5 9.33 12.5 8.5C12.5 7.67 13.17 7 14 7C14.83 7 15.5 7.67 15.5 8.5C15.5 9.33 14.83 10 14 10Z" fill="url(#paint0_linear)"/>
<path fill-rule="evenodd" clip-rule="evenodd" d="M14 1C8.48 1 4 5.48 4 11C4 16.52 8.48 21 14 21C19.52 21 24 16.52 24 11C24 5.48 19.52 1 14 1ZM9.07 17.28C9.5 16.38 12.12 15.5 14 15.5C15.88 15.5 18.51 16.38 18.93 17.28C17.57 18.36 15.86 19 14 19C12.14 19 10.43 18.36 9.07 17.28ZM20.36 15.83C18.93 14.09 15.46 13.5 14 13.5C12.54 13.5 9.07 14.09 7.64 15.83C6.62 14.49 6 12.82 6 11C6 6.59 9.59 3 14 3C18.41 3 22 6.59 22 11C22 12.82 21.38 14.49 20.36 15.83V15.83ZM14 5C12.06 5 10.5 6.56 10.5 8.5C10.5 10.44 12.06 12 14 12C15.94 12 17.5 10.44 17.5 8.5C17.5 6.56 15.94 5 14 5ZM14 10C13.17 10 12.5 9.33 12.5 8.5C12.5 7.67 13.17 7 14 7C14.83 7 15.5 7.67 15.5 8.5C15.5 9.33 14.83 10 14 10Z" fill="url(#paint1_linear)"/>
<path fill-rule="evenodd" clip-rule="evenodd" d="M14 1C8.48 1 4 5.48 4 11C4 16.52 8.48 21 14 21C19.52 21 24 16.52 24 11C24 5.48 19.52 1 14 1ZM9.07 17.28C9.5 16.38 12.12 15.5 14 15.5C15.88 15.5 18.51 16.38 18.93 17.28C17.57 18.36 15.86 19 14 19C12.14 19 10.43 18.36 9.07 17.28ZM20.36 15.83C18.93 14.09 15.46 13.5 14 13.5C12.54 13.5 9.07 14.09 7.64 15.83C6.62 14.49 6 12.82 6 11C6 6.59 9.59 3 14 3C18.41 3 22 6.59 22 11C22 12.82 21.38 14.49 20.36 15.83V15.83ZM14 5C12.06 5 10.5 6.56 10.5 8.5C10.5 10.44 12.06 12 14 12C15.94 12 17.5 10.44 17.5 8.5C17.5 6.56 15.94 5 14 5ZM14 10C13.17 10 12.5 9.33 12.5 8.5C12.5 7.67 13.17 7 14 7C14.83 7 15.5 7.67 15.5 8.5C15.5 9.33 14.83 10 14 10Z" fill="url(#paint2_linear)"/>
<path fill-rule="evenodd" clip-rule="evenodd" d="M14 1C8.48 1 4 5.48 4 11C4 16.52 8.48 21 14 21C19.52 21 24 16.52 24 11C24 5.48 19.52 1 14 1ZM9.07 17.28C9.5 16.38 12.12 15.5 14 15.5C15.88 15.5 18.51 16.38 18.93 17.28C17.57 18.36 15.86 19 14 19C12.14 19 10.43 18.36 9.07 17.28ZM20.36 15.83C18.93 14.09 15.46 13.5 14 13.5C12.54 13.5 9.07 14.09 7.64 15.83C6.62 14.49 6 12.82 6 11C6 6.59 9.59 3 14 3C18.41 3 22 6.59 22 11C22 12.82 21.38 14.49 20.36 15.83V15.83ZM14 5C12.06 5 10.5 6.56 10.5 8.5C10.5 10.44 12.06 12 14 12C15.94 12 17.5 10.44 17.5 8.5C17.5 6.56 15.94 5 14 5ZM14 10C13.17 10 12.5 9.33 12.5 8.5C12.5 7.67 13.17 7 14 7C14.83 7 15.5 7.67 15.5 8.5C15.5 9.33 14.83 10 14 10Z" fill="url(#paint3_linear)"/>
</g>
<defs>
<filter id="filter0_d" x="0" y="1" width="28" height="28" filterUnits="userSpaceOnUse" color-interpolation-filters="sRGB">
<feFlood flood-opacity="0" result="BackgroundImageFix"/>
<feColorMatrix in="SourceAlpha" type="matrix" values="0 0 0 0 0 0 0 0 0 0 0 0 0 0 0 0 0 0 127 0"/>
<feOffset dy="4"/>
<feGaussianBlur stdDeviation="2"/>
<feColorMatrix type="matrix" values="0 0 0 0 0 0 0 0 0 0 0 0 0 0 0 0 0 0 0.25 0"/>
<feBlend mode="normal" in2="BackgroundImageFix" result="effect1_dropShadow"/>
<feBlend mode="normal" in="SourceGraphic" in2="effect1_dropShadow" result="shape"/>
</filter>
<linearGradient id="paint0_linear" x1="14" y1="1" x2="14" y2="21" gradientUnits="userSpaceOnUse">
<stop stop-color="white"/>
<stop offset="1" stop-color="white" stop-opacity="0"/>
</linearGradient>
<linearGradient id="paint1_linear" x1="14" y1="1" x2="14" y2="21" gradientUnits="userSpaceOnUse">
<stop stop-color="white"/>
<stop offset="1" stop-color="white" stop-opacity="0"/>
</linearGradient>
<linearGradient id="paint2_linear" x1="14" y1="1" x2="14" y2="21" gradientUnits="userSpaceOnUse">
<stop stop-color="white"/>
<stop offset="1" stop-color="white" stop-opacity="0"/>
</linearGradient>
<linearGradient id="paint3_linear" x1="14" y1="1" x2="14" y2="21" gradientUnits="userSpaceOnUse">
<stop stop-color="white"/>
<stop offset="1" stop-color="white" stop-opacity="0"/>
</linearGradient>
</defs>
</svg>
