<svg width="100" height="23" viewBox="0 0 100 23" fill="none" xmlns="http://www.w3.org/2000/svg">
<path d="M32.08 17.054C31.972 17.054 31.888 17.018 31.828 16.946C31.78 16.862 31.756 16.766 31.756 16.658C31.768 16.478 31.804 16.37 31.864 16.334C31.924 16.298 32.038 16.28 32.206 16.28C32.554 16.28 32.812 16.22 32.98 16.1C33.148 15.968 33.25 15.812 33.286 15.632C33.334 15.44 33.364 15.194 33.376 14.894V7.748C33.364 7.448 33.334 7.208 33.286 7.028C33.25 6.836 33.148 6.68 32.98 6.56C32.812 6.428 32.554 6.362 32.206 6.362H32.098C31.978 6.362 31.894 6.344 31.846 6.308C31.798 6.26 31.768 6.152 31.756 5.984C31.756 5.876 31.78 5.786 31.828 5.714C31.888 5.63 31.972 5.588 32.08 5.588C32.86 5.624 33.568 5.642 34.204 5.642H36.742C37.402 5.642 37.936 5.69 38.344 5.786C38.752 5.882 39.118 6.032 39.442 6.236C39.754 6.44 40 6.722 40.18 7.082C40.36 7.43 40.45 7.814 40.45 8.234C40.45 8.978 40.204 9.572 39.712 10.016C39.232 10.448 38.668 10.742 38.02 10.898V10.952C38.644 10.952 39.208 11.078 39.712 11.33C40.228 11.57 40.624 11.9 40.9 12.32C41.188 12.728 41.332 13.172 41.332 13.652C41.332 14.468 41.08 15.128 40.576 15.632C40.084 16.136 39.46 16.496 38.704 16.712C37.96 16.916 37.186 17.018 36.382 17.018L34.222 17C33.574 17 32.86 17.018 32.08 17.054ZM35.914 10.592C36.394 10.592 36.808 10.556 37.156 10.484C37.516 10.412 37.834 10.22 38.11 9.908C38.386 9.596 38.524 9.11 38.524 8.45C38.524 7.022 37.822 6.308 36.418 6.308H35.158V10.592H35.914ZM36.454 16.298C37.342 16.286 38.05 16.07 38.578 15.65C39.118 15.218 39.388 14.516 39.388 13.544C39.328 12.896 39.022 12.362 38.47 11.942C37.93 11.522 37.072 11.312 35.896 11.312H35.158V14.894C35.158 15.302 35.194 15.608 35.266 15.812C35.35 16.004 35.476 16.136 35.644 16.208C35.824 16.268 36.094 16.298 36.454 16.298ZM42.8344 17.054C42.7384 17.054 42.6664 17.018 42.6184 16.946C42.5704 16.874 42.5464 16.79 42.5464 16.694C42.5464 16.538 42.5764 16.448 42.6364 16.424C42.6964 16.388 42.8044 16.37 42.9604 16.37C43.2724 16.37 43.4944 16.316 43.6264 16.208C43.7584 16.1 43.8304 15.98 43.8424 15.848C43.8664 15.704 43.8784 15.47 43.8784 15.146V10.7C43.8784 10.652 43.8784 10.502 43.8784 10.25C43.8784 9.986 43.8004 9.794 43.6444 9.674C43.5004 9.542 43.2724 9.476 42.9604 9.476H42.8524C42.7444 9.476 42.6664 9.458 42.6184 9.422C42.5704 9.386 42.5464 9.296 42.5464 9.152C42.5464 9.056 42.5704 8.972 42.6184 8.9C42.6664 8.816 42.7384 8.78 42.8344 8.792C43.2904 8.828 43.9084 8.846 44.6884 8.846L45.5164 8.828C45.9004 8.804 46.2064 8.792 46.4344 8.792C46.5304 8.792 46.6024 8.828 46.6504 8.9C46.6984 8.972 46.7224 9.056 46.7224 9.152C46.7224 9.284 46.6924 9.374 46.6324 9.422C46.5844 9.458 46.5124 9.476 46.4164 9.476C46.0204 9.476 45.7744 9.548 45.6784 9.692C45.5824 9.824 45.5344 10.004 45.5344 10.232C45.5344 10.46 45.5344 10.616 45.5344 10.7V11.744C46.1584 11.72 46.5544 11.708 46.7224 11.708C47.8384 11.708 48.7024 11.918 49.3144 12.338C49.9264 12.758 50.2324 13.412 50.2324 14.3C50.2324 15.188 49.9204 15.86 49.2964 16.316C48.6844 16.772 47.9464 17 47.0824 17H44.6884L43.8064 17.018C43.3984 17.042 43.0744 17.054 42.8344 17.054ZM50.8804 17.054C50.7844 17.054 50.7124 17.018 50.6644 16.946C50.6164 16.874 50.5924 16.79 50.5924 16.694C50.6044 16.538 50.6344 16.448 50.6824 16.424C50.7424 16.388 50.8444 16.37 50.9884 16.37C51.2644 16.382 51.4564 16.346 51.5644 16.262C51.6724 16.166 51.7324 16.058 51.7444 15.938C51.7564 15.818 51.7684 15.554 51.7804 15.146V10.7C51.7804 10.628 51.7744 10.454 51.7624 10.178C51.7624 9.902 51.7024 9.716 51.5824 9.62C51.4624 9.512 51.2644 9.464 50.9884 9.476H50.8984C50.8024 9.476 50.7304 9.458 50.6824 9.422C50.6344 9.386 50.6044 9.296 50.5924 9.152C50.5924 9.056 50.6164 8.972 50.6644 8.9C50.7124 8.828 50.7844 8.792 50.8804 8.792C51.5644 8.828 52.1404 8.846 52.6084 8.846C53.1604 8.846 53.7844 8.828 54.4804 8.792C54.5764 8.792 54.6484 8.828 54.6964 8.9C54.7444 8.972 54.7684 9.056 54.7684 9.152C54.7564 9.308 54.7204 9.404 54.6604 9.44C54.6124 9.464 54.5104 9.476 54.3544 9.476C54.0424 9.476 53.8204 9.53 53.6884 9.638C53.5564 9.746 53.4784 9.872 53.4544 10.016C53.4424 10.148 53.4364 10.376 53.4364 10.7V15.146C53.4364 15.194 53.4364 15.35 53.4364 15.614C53.4364 15.866 53.5084 16.058 53.6524 16.19C53.8084 16.31 54.0424 16.37 54.3544 16.37H54.4624C54.5704 16.37 54.6424 16.388 54.6784 16.424C54.7264 16.46 54.7564 16.55 54.7684 16.694C54.7684 16.79 54.7444 16.874 54.6964 16.946C54.6484 17.018 54.5764 17.054 54.4804 17.054C53.7844 17.018 53.1604 17 52.6084 17C52.1404 17 51.5644 17.018 50.8804 17.054ZM46.6504 16.496C47.2144 16.496 47.6404 16.316 47.9284 15.956C48.2284 15.596 48.3784 15.086 48.3784 14.426C48.3784 13.766 48.2224 13.244 47.9104 12.86C47.5984 12.464 47.1364 12.266 46.5244 12.266C46.3204 12.266 46.1224 12.278 45.9304 12.302C45.7384 12.314 45.6064 12.32 45.5344 12.32V15.722C45.5344 15.986 45.6184 16.184 45.7864 16.316C45.9544 16.436 46.2424 16.496 46.6504 16.496ZM55.992 17.054C55.908 17.054 55.842 17.018 55.794 16.946C55.746 16.862 55.722 16.778 55.722 16.694C55.734 16.55 55.764 16.46 55.812 16.424C55.86 16.388 55.932 16.37 56.028 16.37C56.292 16.37 56.508 16.334 56.676 16.262C56.844 16.19 56.988 16.094 57.108 15.974C57.228 15.854 57.42 15.632 57.684 15.308C57.984 14.972 58.59 14.24 59.502 13.112L57.45 10.214C57.294 10.01 57.126 9.854 56.946 9.746C56.778 9.626 56.568 9.542 56.316 9.494C56.28 9.482 56.214 9.47 56.118 9.458C56.022 9.446 55.962 9.416 55.938 9.368C55.914 9.32 55.902 9.236 55.902 9.116C55.902 8.972 55.938 8.882 56.01 8.846C56.094 8.81 56.19 8.792 56.298 8.792C56.418 8.78 56.496 8.774 56.532 8.774C57.756 8.714 58.644 9.05 59.196 9.782L59.538 10.286C59.85 10.814 60.192 11.324 60.564 11.816L61.77 10.25C61.974 9.974 62.076 9.782 62.076 9.674C62.076 9.602 62.022 9.554 61.914 9.53C61.806 9.506 61.608 9.488 61.32 9.476H61.212C61.116 9.476 61.044 9.458 60.996 9.422C60.96 9.386 60.936 9.296 60.924 9.152C60.924 9.068 60.942 8.99 60.978 8.918C61.026 8.834 61.092 8.792 61.176 8.792C61.86 8.828 62.364 8.846 62.688 8.846C63.024 8.846 63.54 8.828 64.236 8.792C64.32 8.792 64.386 8.834 64.434 8.918C64.482 8.99 64.506 9.068 64.506 9.152C64.494 9.284 64.464 9.368 64.416 9.404C64.368 9.44 64.308 9.464 64.236 9.476C64.176 9.476 64.134 9.476 64.11 9.476C63.762 9.488 63.498 9.56 63.318 9.692C63.15 9.812 62.892 10.094 62.544 10.538C62.424 10.67 62.232 10.91 61.968 11.258C61.5 11.846 61.188 12.236 61.032 12.428C62.016 13.7 62.748 14.66 63.228 15.308C63.456 15.632 63.684 15.89 63.912 16.082C64.14 16.274 64.392 16.37 64.668 16.37H64.776C64.872 16.37 64.944 16.388 64.992 16.424C65.04 16.46 65.07 16.55 65.082 16.694C65.082 16.79 65.052 16.874 64.992 16.946C64.944 17.018 64.878 17.054 64.794 17.054C64.086 17.018 63.51 17 63.066 17C62.502 17 61.866 17.018 61.158 17.054C61.074 17.054 61.002 17.018 60.942 16.946C60.894 16.874 60.87 16.79 60.87 16.694C60.882 16.538 60.912 16.448 60.96 16.424C61.02 16.388 61.128 16.37 61.284 16.37C61.536 16.37 61.662 16.286 61.662 16.118C61.662 15.998 61.578 15.824 61.41 15.596L60.006 13.724L58.458 15.596C58.254 15.86 58.152 16.04 58.152 16.136C58.152 16.22 58.212 16.28 58.332 16.316C58.452 16.352 58.644 16.37 58.908 16.37H59.016C59.112 16.37 59.178 16.388 59.214 16.424C59.262 16.46 59.292 16.55 59.304 16.694C59.304 16.778 59.28 16.862 59.232 16.946C59.196 17.018 59.136 17.054 59.052 17.054C58.368 17.018 57.864 17 57.54 17C57.216 17 56.7 17.018 55.992 17.054ZM69.4008 17.216C68.5848 17.216 67.8588 17.024 67.2228 16.64C66.5868 16.244 66.0888 15.728 65.7288 15.092C65.3808 14.444 65.2068 13.76 65.2068 13.04C65.2068 12.14 65.4168 11.36 65.8368 10.7C66.2568 10.028 66.7908 9.518 67.4388 9.17C68.0868 8.81 68.7408 8.63 69.4008 8.63C70.2168 8.63 70.9428 8.828 71.5788 9.224C72.2148 9.608 72.7068 10.124 73.0548 10.772C73.4148 11.408 73.5948 12.086 73.5948 12.806C73.5948 13.706 73.3788 14.492 72.9468 15.164C72.5268 15.824 71.9928 16.334 71.3448 16.694C70.6968 17.042 70.0488 17.216 69.4008 17.216ZM69.4008 16.55C70.2168 16.55 70.8108 16.202 71.1828 15.506C71.5668 14.81 71.7588 13.91 71.7588 12.806C71.7588 11.774 71.5608 10.934 71.1648 10.286C70.7808 9.626 70.1928 9.296 69.4008 9.296C68.5728 9.296 67.9728 9.638 67.6008 10.322C67.2288 11.006 67.0428 11.9 67.0428 13.004C67.0428 14.036 67.2348 14.888 67.6188 15.56C68.0028 16.22 68.5968 16.55 69.4008 16.55ZM74.2892 19.322C74.1812 19.322 74.0852 19.292 74.0012 19.232C73.9292 19.184 73.8932 19.106 73.8932 18.998V16.712C73.8932 16.436 74.0312 16.298 74.3072 16.298H74.7752C75.3872 15.614 75.8192 14.816 76.0712 13.904C76.3352 12.98 76.4972 11.936 76.5572 10.772C76.5572 10.46 76.5452 10.232 76.5212 10.088C76.4972 9.944 76.4192 9.818 76.2872 9.71C76.1552 9.602 75.9332 9.548 75.6212 9.548H75.5132C75.4172 9.548 75.3452 9.53 75.2972 9.494C75.2492 9.458 75.2192 9.368 75.2072 9.224C75.2072 9.116 75.2312 9.02 75.2792 8.936C75.3272 8.84 75.3992 8.792 75.4952 8.792C76.1912 8.828 76.8092 8.846 77.3492 8.846H80.8952C81.4472 8.846 82.0712 8.828 82.7672 8.792C82.8632 8.792 82.9352 8.84 82.9832 8.936C83.0312 9.02 83.0552 9.116 83.0552 9.224C83.0432 9.38 83.0072 9.476 82.9472 9.512C82.8992 9.536 82.7972 9.548 82.6412 9.548C82.3292 9.548 82.1072 9.602 81.9752 9.71C81.8432 9.818 81.7652 9.944 81.7412 10.088C81.7172 10.232 81.7052 10.46 81.7052 10.772V15.056C81.7052 15.404 81.7232 15.656 81.7592 15.812C81.7952 15.968 81.8852 16.088 82.0292 16.172C82.1852 16.256 82.4312 16.298 82.7672 16.298C83.0432 16.298 83.1812 16.436 83.1812 16.712V18.998C83.1812 19.106 83.1392 19.184 83.0552 19.232C82.9832 19.292 82.8932 19.322 82.7852 19.322C82.6532 19.322 82.5332 19.298 82.4252 19.25C82.3292 19.202 82.2752 19.13 82.2632 19.034C82.1792 18.47 82.0892 18.056 81.9932 17.792C81.9092 17.528 81.7712 17.33 81.5792 17.198C81.3872 17.066 81.0992 17 80.7152 17H76.3592C75.9752 17 75.6872 17.066 75.4952 17.198C75.3032 17.33 75.1592 17.528 75.0632 17.792C74.9792 18.056 74.8952 18.47 74.8112 19.034C74.7992 19.13 74.7392 19.202 74.6312 19.25C74.5352 19.298 74.4212 19.322 74.2892 19.322ZM79.3292 16.298C79.5932 16.298 79.7792 16.244 79.8872 16.136C80.0072 16.028 80.0672 15.788 80.0672 15.416V9.422H78.3572C77.9612 9.422 77.7092 9.506 77.6012 9.674C77.5052 9.842 77.4572 10.034 77.4572 10.25C77.4572 10.454 77.4572 10.586 77.4572 10.646C77.3852 11.966 77.2352 13.076 77.0072 13.976C76.7792 14.876 76.3832 15.65 75.8192 16.298H79.3292Z" fill="#FFFBFB"/>
<g filter="url(#filter0_d)">
<path fill-rule="evenodd" clip-rule="evenodd" d="M14 1C8.48 1 4 5.48 4 11C4 16.52 8.48 21 14 21C19.52 21 24 16.52 24 11C24 5.48 19.52 1 14 1ZM9.07 17.28C9.5 16.38 12.12 15.5 14 15.5C15.88 15.5 18.51 16.38 18.93 17.28C17.57 18.36 15.86 19 14 19C12.14 19 10.43 18.36 9.07 17.28ZM20.36 15.83C18.93 14.09 15.46 13.5 14 13.5C12.54 13.5 9.07 14.09 7.64 15.83C6.62 14.49 6 12.82 6 11C6 6.59 9.59 3 14 3C18.41 3 22 6.59 22 11C22 12.82 21.38 14.49 20.36 15.83V15.83ZM14 5C12.06 5 10.5 6.56 10.5 8.5C10.5 10.44 12.06 12 14 12C15.94 12 17.5 10.44 17.5 8.5C17.5 6.56 15.94 5 14 5ZM14 10C13.17 10 12.5 9.33 12.5 8.5C12.5 7.67 13.17 7 14 7C14.83 7 15.5 7.67 15.5 8.5C15.5 9.33 14.83 10 14 10Z" fill="white"/>
<path fill-rule="evenodd" clip-rule="evenodd" d="M14 1C8.48 1 4 5.48 4 11C4 16.52 8.48 21 14 21C19.52 21 24 16.52 24 11C24 5.48 19.52 1 14 1ZM9.07 17.28C9.5 16.38 12.12 15.5 14 15.5C15.88 15.5 18.51 16.38 18.93 17.28C17.57 18.36 15.86 19 14 19C12.14 19 10.43 18.36 9.07 17.28ZM20.36 15.83C18.93 14.09 15.46 13.5 14 13.5C12.54 13.5 9.07 14.09 7.64 15.83C6.62 14.49 6 12.82 6 11C6 6.59 9.59 3 14 3C18.41 3 22 6.59 22 11C22 12.82 21.38 14.49 20.36 15.83V15.83ZM14 5C12.06 5 10.5 6.56 10.5 8.5C10.5 10.44 12.06 12 14 12C15.94 12 17.5 10.44 17.5 8.5C17.5 6.56 15.94 5 14 5ZM14 10C13.17 10 12.5 9.33 12.5 8.5C12.5 7.67 13.17 7 14 7C14.83 7 15.5 7.67 15.5 8.5C15.5 9.33 14.83 10 14 10Z" fill="url(#paint0_linear)"/>
<path fill-rule="evenodd" clip-rule="evenodd" d="M14 1C8.48 1 4 5.48 4 11C4 16.52 8.48 21 14 21C19.52 21 24 16.52 24 11C24 5.48 19.52 1 14 1ZM9.07 17.28C9.5 16.38 12.12 15.5 14 15.5C15.88 15.5 18.51 16.38 18.93 17.28C17.57 18.36 15.86 19 14 19C12.14 19 10.43 18.36 9.07 17.28ZM20.36 15.83C18.93 14.09 15.46 13.5 14 13.5C12.54 13.5 9.07 14.09 7.64 15.83C6.62 14.49 6 12.82 6 11C6 6.59 9.59 3 14 3C18.41 3 22 6.59 22 11C22 12.82 21.38 14.49 20.36 15.83V15.83ZM14 5C12.06 5 10.5 6.56 10.5 8.5C10.5 10.44 12.06 12 14 12C15.94 12 17.5 10.44 17.5 8.5C17.5 6.56 15.94 5 14 5ZM14 10C13.17 10 12.5 9.33 12.5 8.5C12.5 7.67 13.17 7 14 7C14.83 7 15.5 7.67 15.5 8.5C15.5 9.33 14.83 10 14 10Z" fill="url(#paint1_linear)"/>
<path fill-rule="evenodd" clip-rule="evenodd" d="M14 1C8.48 1 4 5.48 4 11C4 16.52 8.48 21 14 21C19.52 21 24 16.52 24 11C24 5.48 19.52 1 14 1ZM9.07 17.28C9.5 16.38 12.12 15.5 14 15.5C15.88 15.5 18.51 16.38 18.93 17.28C17.57 18.36 15.86 19 14 19C12.14 19 10.43 18.36 9.07 17.28ZM20.36 15.83C18.93 14.09 15.46 13.5 14 13.5C12.54 13.5 9.07 14.09 7.64 15.83C6.62 14.49 6 12.82 6 11C6 6.59 9.59 3 14 3C18.41 3 22 6.59 22 11C22 12.82 21.38 14.49 20.36 15.83V15.83ZM14 5C12.06 5 10.5 6.56 10.5 8.5C10.5 10.44 12.06 12 14 12C15.94 12 17.5 10.44 17.5 8.5C17.5 6.56 15.94 5 14 5ZM14 10C13.17 10 12.5 9.33 12.5 8.5C12.5 7.67 13.17 7 14 7C14.83 7 15.5 7.67 15.5 8.5C15.5 9.33 14.83 10 14 10Z" fill="url(#paint2_linear)"/>
<path fill-rule="evenodd" clip-rule="evenodd" d="M14 1C8.48 1 4 5.48 4 11C4 16.52 8.48 21 14 21C19.52 21 24 16.52 24 11C24 5.48 19.52 1 14 1ZM9.07 17.28C9.5 16.38 12.12 15.5 14 15.5C15.88 15.5 18.51 16.38 18.93 17.28C17.57 18.36 15.86 19 14 19C12.14 19 10.43 18.36 9.07 17.28ZM20.36 15.83C18.93 14.09 15.46 13.5 14 13.5C12.54 13.5 9.07 14.09 7.64 15.83C6.62 14.49 6 12.82 6 11C6 6.59 9.59 3 14 3C18.41 3 22 6.59 22 11C22 12.82 21.38 14.49 20.36 15.83V15.83ZM14 5C12.06 5 10.5 6.56 10.5 8.5C10.5 10.44 12.06 12 14 12C15.94 12 17.5 10.44 17.5 8.5C17.5 6.56 15.94 5 14 5ZM14 10C13.17 10 12.5 9.33 12.5 8.5C12.5 7.67 13.17 7 14 7C14.83 7 15.5 7.67 15.5 8.5C15.5 9.33 14.83 10 14 10Z" fill="url(#paint3_linear)"/>
</g>
<defs>
<filter id="filter0_d" x="0" y="1" width="28" height="28" filterUnits="userSpaceOnUse" color-interpolation-filters="sRGB">
<feFlood flood-opacity="0" result="BackgroundImageFix"/>
<feColorMatrix in="SourceAlpha" type="matrix" values="0 0 0 0 0 0 0 0 0 0 0 0 0 0 0 0 0 0 127 0"/>
<feOffset dy="4"/>
<feGaussianBlur stdDeviation="2"/>
<feColorMatrix type="matrix" values="0 0 0 0 0 0 0 0 0 0 0 0 0 0 0 0 0 0 0.25 0"/>
<feBlend mode="normal" in2="BackgroundImageFix" result="effect1_dropShadow"/>
<feBlend mode="normal" in="SourceGraphic" in2="effect1_dropShadow" result="shape"/>
</filter>
<linearGradient id="paint0_linear" x1="14" y1="1" x2="14" y2="21" gradientUnits="userSpaceOnUse">
<stop stop-color="white"/>
<stop offset="1" stop-color="white" stop-opacity="0"/>
</linearGradient>
<linearGradient id="paint1_linear" x1="14" y1="1" x2="14" y2="21" gradientUnits="userSpaceOnUse">
<stop stop-color="white"/>
<stop offset="1" stop-color="white" stop-opacity="0"/>
</linearGradient>
<linearGradient id="paint2_linear" x1="14" y1="1" x2="14" y2="21" gradientUnits="userSpaceOnUse">
<stop stop-color="white"/>
<stop offset="1" stop-color="white" stop-opacity="0"/>
</linearGradient>
<linearGradient id="paint3_linear" x1="14" y1="1" x2="14" y2="21" gradientUnits="userSpaceOnUse">
<stop stop-color="white"/>
<stop offset="1" stop-color="white" stop-opacity="0"/>
</linearGradient>
</defs>
</svg>
