<svg width="24" height="24" viewBox="0 0 24 24" fill="none" xmlns="http://www.w3.org/2000/svg">
<path fill-rule="evenodd" clip-rule="evenodd" d="M7.66537 1.99976H16.3344C19.7234 1.99976 22.0004 4.37776 22.0004 7.91576V16.0838C22.0004 19.6218 19.7224 21.9998 16.3334 21.9998H10.9534C10.5394 21.9998 10.2034 21.6638 10.2034 21.2498C10.2034 20.8358 10.5394 20.4998 10.9534 20.4998H16.3334C18.8644 20.4998 20.5004 18.7668 20.5004 16.0838V7.91576C20.5004 5.23276 18.8644 3.49976 16.3344 3.49976H7.66537C5.13537 3.49976 3.50037 5.23276 3.50037 7.91576V16.0838C3.50037 18.7668 5.13537 20.4998 7.66537 20.4998C8.07937 20.4998 8.41537 20.8358 8.41537 21.2498C8.41537 21.6638 8.07937 21.9998 7.66537 21.9998C4.27637 21.9998 2.00037 19.6218 2.00037 16.0838V7.91576C2.00037 4.37776 4.27637 1.99976 7.66537 1.99976ZM6.46737 10.9324C6.63737 10.5544 7.07937 10.3854 7.45937 10.5564C7.83737 10.7254 8.00537 11.1694 7.83537 11.5474C7.77137 11.6904 7.73937 11.8424 7.73937 11.9994C7.73937 12.6074 8.23337 13.1014 8.84037 13.1014C9.44837 13.1014 9.94237 12.6074 9.94237 11.9994C9.94237 11.3924 9.44837 10.8984 8.84037 10.8984C8.42637 10.8984 8.09037 10.5624 8.09037 10.1484C8.09037 9.73436 8.42637 9.39836 8.84037 9.39836C10.0134 9.39836 10.9944 10.1824 11.3184 11.2494H17.0104C17.4244 11.2494 17.7604 11.5854 17.7604 11.9994V13.8514C17.7604 14.2654 17.4244 14.6014 17.0104 14.6014C16.5964 14.6014 16.2604 14.2654 16.2604 13.8514V12.7494H14.9314V13.8514C14.9314 14.2654 14.5954 14.6014 14.1814 14.6014C13.7674 14.6014 13.4314 14.2654 13.4314 13.8514V12.7494H11.3184C10.9944 13.8174 10.0134 14.6014 8.84037 14.6014C7.40637 14.6014 6.23937 13.4344 6.23937 11.9994C6.23937 11.6284 6.31537 11.2704 6.46737 10.9324Z" fill="#200E32"/>
</svg>
