<svg width="108" height="25" viewBox="0 0 108 25" fill="none" xmlns="http://www.w3.org/2000/svg">
<path d="M31.623 17.8735L31.672 5.73561L40.7839 5.77236L40.735 17.9103L39.222 17.9042L39.2655 7.10925L33.1966 7.08477L33.153 17.8797L31.623 17.8735ZM48.2259 8.6584C49.3479 8.66293 50.2473 9.05756 50.9241 9.84229C51.6123 10.6271 51.9532 11.8071 51.9469 13.3824C51.9406 14.9351 51.5902 16.1124 50.8956 16.9142C50.2124 17.7162 49.3041 18.1148 48.1708 18.1103C47.4681 18.1074 46.885 17.9747 46.4214 17.7122C45.9691 17.4384 45.6134 17.1253 45.3541 16.7729L45.2521 16.7725C45.274 16.9652 45.2957 17.209 45.3172 17.5037C45.3387 17.7985 45.349 18.0535 45.3481 18.2689L45.333 22.0088L43.837 22.0028L43.8902 8.81092L45.1142 8.81585L45.3132 10.0577L45.3812 10.0579C45.6548 9.66237 46.0132 9.32948 46.4563 9.05927C46.8994 8.78905 47.4892 8.65543 48.2259 8.6584ZM47.9488 9.91529C47.0195 9.91155 46.3611 10.1696 45.9737 10.6893C45.5976 11.2092 45.3961 12.0017 45.3691 13.0669L45.3679 13.3559C45.3634 14.4779 45.5412 15.3456 45.9014 15.9591C46.273 16.5613 46.9575 16.8644 47.9548 16.8684C48.5101 16.8706 48.9641 16.7194 49.3166 16.4149C49.6805 16.1103 49.9485 15.6977 50.1206 15.1771C50.3041 14.6452 50.3972 14.0392 50.4 13.3592C50.4042 12.3165 50.2035 11.4827 49.798 10.8578C49.4039 10.2328 48.7875 9.91868 47.9488 9.91529ZM62.2528 13.424C62.2467 14.9313 61.8567 16.0971 61.0827 16.9213C60.32 17.7456 59.287 18.1551 57.9837 18.1498C57.179 18.1466 56.4601 17.9624 55.8269 17.5971C55.2051 17.2206 54.7142 16.6803 54.3544 15.9762C53.9946 15.2607 53.8168 14.3987 53.8208 13.39C53.8269 11.8827 54.2113 10.7226 54.9739 9.90963C55.7365 9.0967 56.7695 8.69286 58.0728 8.69812C58.9001 8.70145 59.6247 8.89138 60.2465 9.26789C60.8797 9.63311 61.3706 10.1678 61.7191 10.8718C62.0789 11.5646 62.2568 12.4154 62.2528 13.424ZM55.3678 13.3962C55.3635 14.4729 55.5697 15.3294 55.9865 15.9658C56.4146 16.5908 57.0934 16.9052 58.0227 16.909C58.9407 16.9127 59.6163 16.6037 60.0494 15.9821C60.4827 15.3492 60.7014 14.4944 60.7058 13.4178C60.7101 12.3411 60.4982 11.4959 60.07 10.8822C59.6418 10.2685 58.9631 9.95972 58.0337 9.95597C57.1044 9.95222 56.4288 10.2555 56.007 10.8658C55.5852 11.4761 55.3722 12.3196 55.3678 13.3962ZM70.0825 8.78055C70.9889 8.86354 71.7756 9.10472 72.4426 9.50408C73.121 9.90348 73.6459 10.4383 74.0172 11.1084C74.3885 11.7786 74.5723 12.5727 74.5686 13.4907C74.563 14.862 74.1563 15.954 73.3484 16.7668C72.5517 17.5796 71.4505 18.0455 70.0447 18.1645L70.0288 22.1084L68.5668 22.1025L68.5827 18.1586C67.6877 18.0756 66.901 17.8401 66.2225 17.4521C65.5441 17.0526 65.0193 16.5179 64.648 15.8477C64.2767 15.1662 64.093 14.3664 64.0967 13.4484C64.1022 12.0658 64.5033 10.9681 65.3 10.1553C66.1079 9.34253 67.2318 8.88239 68.6715 8.77486L68.6864 5.10289L70.0973 5.10858L70.0825 8.78055ZM68.6665 10.0159C67.6235 10.1136 66.8628 10.4562 66.3844 11.0437C65.9061 11.6197 65.6648 12.4234 65.6606 13.4548C65.6565 14.4861 65.8912 15.2974 66.3648 15.8886C66.8498 16.4799 67.6077 16.8286 68.6386 16.9348L68.6665 10.0159ZM70.0496 16.9405C71.0701 16.8313 71.8195 16.483 72.2979 15.8955C72.7762 15.3081 73.0175 14.5044 73.0216 13.4844C73.0257 12.4645 72.7853 11.6645 72.3003 11.0845C71.8266 10.5046 71.0857 10.1559 70.0775 10.0385L70.0496 16.9405ZM78.3489 14.5089C78.3483 14.6449 78.3418 14.8489 78.3294 15.1209C78.317 15.3928 78.2989 15.6647 78.2751 15.9367C78.2627 16.2086 78.2505 16.4239 78.2385 16.5825L83.1482 8.96925L84.9842 8.97665L84.9475 18.0886L83.5535 18.083L83.5752 12.711C83.5759 12.5297 83.5768 12.2917 83.578 11.997C83.5906 11.7024 83.6031 11.4134 83.6155 11.1301C83.6281 10.8355 83.6403 10.6146 83.6522 10.4673L78.7765 18.0637L76.9235 18.0562L76.9603 8.94429L78.3713 8.94998L78.3489 14.5089ZM94.7832 18.1282L93.2702 18.1221L93.302 10.2512L90.616 10.2404C90.4609 12.1551 90.2507 13.7013 89.9853 14.8789C89.7199 16.0451 89.3708 16.8937 88.938 17.4247C88.5052 17.9556 87.9601 18.2197 87.3028 18.2171C87.1555 18.2165 87.0082 18.2046 86.8609 18.1813C86.725 18.1694 86.6118 18.1406 86.5213 18.0949L86.5258 16.9729C86.5937 16.9959 86.6673 17.0132 86.7466 17.0248C86.8259 17.0365 86.9052 17.0425 86.9845 17.0428C87.5965 17.0453 88.0865 16.3956 88.4544 15.0937C88.8337 13.7919 89.1252 11.7587 89.329 8.99417L94.82 9.01632L94.7832 18.1282ZM101.896 12.7849C104.265 12.7944 105.445 13.6605 105.439 15.3832C105.435 16.2332 105.143 16.912 104.563 17.4197C103.983 17.916 103.064 18.1616 101.806 18.1566L97.6753 18.1399L97.7121 9.02798L99.2081 9.03402L99.193 12.774L101.896 12.7849ZM103.942 15.4622C103.944 14.9068 103.748 14.532 103.352 14.3378C102.967 14.1322 102.424 14.028 101.721 14.0252L99.188 14.015L99.1762 16.939L101.743 16.9493C102.378 16.9519 102.9 16.8406 103.309 16.6156C103.729 16.3906 103.94 16.0062 103.942 15.4622Z" fill="#FB8E8E"/>
<path d="M31.623 17.8735L31.672 5.73561L40.7839 5.77236L40.735 17.9103L39.222 17.9042L39.2655 7.10925L33.1966 7.08477L33.153 17.8797L31.623 17.8735ZM48.2259 8.6584C49.3479 8.66293 50.2473 9.05756 50.9241 9.84229C51.6123 10.6271 51.9532 11.8071 51.9469 13.3824C51.9406 14.9351 51.5902 16.1124 50.8956 16.9142C50.2124 17.7162 49.3041 18.1148 48.1708 18.1103C47.4681 18.1074 46.885 17.9747 46.4214 17.7122C45.9691 17.4384 45.6134 17.1253 45.3541 16.7729L45.2521 16.7725C45.274 16.9652 45.2957 17.209 45.3172 17.5037C45.3387 17.7985 45.349 18.0535 45.3481 18.2689L45.333 22.0088L43.837 22.0028L43.8902 8.81092L45.1142 8.81585L45.3132 10.0577L45.3812 10.0579C45.6548 9.66237 46.0132 9.32948 46.4563 9.05927C46.8994 8.78905 47.4892 8.65543 48.2259 8.6584ZM47.9488 9.91529C47.0195 9.91155 46.3611 10.1696 45.9737 10.6893C45.5976 11.2092 45.3961 12.0017 45.3691 13.0669L45.3679 13.3559C45.3634 14.4779 45.5412 15.3456 45.9014 15.9591C46.273 16.5613 46.9575 16.8644 47.9548 16.8684C48.5101 16.8706 48.9641 16.7194 49.3166 16.4149C49.6805 16.1103 49.9485 15.6977 50.1206 15.1771C50.3041 14.6452 50.3972 14.0392 50.4 13.3592C50.4042 12.3165 50.2035 11.4827 49.798 10.8578C49.4039 10.2328 48.7875 9.91868 47.9488 9.91529ZM62.2528 13.424C62.2467 14.9313 61.8567 16.0971 61.0827 16.9213C60.32 17.7456 59.287 18.1551 57.9837 18.1498C57.179 18.1466 56.4601 17.9624 55.8269 17.5971C55.2051 17.2206 54.7142 16.6803 54.3544 15.9762C53.9946 15.2607 53.8168 14.3987 53.8208 13.39C53.8269 11.8827 54.2113 10.7226 54.9739 9.90963C55.7365 9.0967 56.7695 8.69286 58.0728 8.69812C58.9001 8.70145 59.6247 8.89138 60.2465 9.26789C60.8797 9.63311 61.3706 10.1678 61.7191 10.8718C62.0789 11.5646 62.2568 12.4154 62.2528 13.424ZM55.3678 13.3962C55.3635 14.4729 55.5697 15.3294 55.9865 15.9658C56.4146 16.5908 57.0934 16.9052 58.0227 16.909C58.9407 16.9127 59.6163 16.6037 60.0494 15.9821C60.4827 15.3492 60.7014 14.4944 60.7058 13.4178C60.7101 12.3411 60.4982 11.4959 60.07 10.8822C59.6418 10.2685 58.9631 9.95972 58.0337 9.95597C57.1044 9.95222 56.4288 10.2555 56.007 10.8658C55.5852 11.4761 55.3722 12.3196 55.3678 13.3962ZM70.0825 8.78055C70.9889 8.86354 71.7756 9.10472 72.4426 9.50408C73.121 9.90348 73.6459 10.4383 74.0172 11.1084C74.3885 11.7786 74.5723 12.5727 74.5686 13.4907C74.563 14.862 74.1563 15.954 73.3484 16.7668C72.5517 17.5796 71.4505 18.0455 70.0447 18.1645L70.0288 22.1084L68.5668 22.1025L68.5827 18.1586C67.6877 18.0756 66.901 17.8401 66.2225 17.4521C65.5441 17.0526 65.0193 16.5179 64.648 15.8477C64.2767 15.1662 64.093 14.3664 64.0967 13.4484C64.1022 12.0658 64.5033 10.9681 65.3 10.1553C66.1079 9.34253 67.2318 8.88239 68.6715 8.77486L68.6864 5.10289L70.0973 5.10858L70.0825 8.78055ZM68.6665 10.0159C67.6235 10.1136 66.8628 10.4562 66.3844 11.0437C65.9061 11.6197 65.6648 12.4234 65.6606 13.4548C65.6565 14.4861 65.8912 15.2974 66.3648 15.8886C66.8498 16.4799 67.6077 16.8286 68.6386 16.9348L68.6665 10.0159ZM70.0496 16.9405C71.0701 16.8313 71.8195 16.483 72.2979 15.8955C72.7762 15.3081 73.0175 14.5044 73.0216 13.4844C73.0257 12.4645 72.7853 11.6645 72.3003 11.0845C71.8266 10.5046 71.0857 10.1559 70.0775 10.0385L70.0496 16.9405ZM78.3489 14.5089C78.3483 14.6449 78.3418 14.8489 78.3294 15.1209C78.317 15.3928 78.2989 15.6647 78.2751 15.9367C78.2627 16.2086 78.2505 16.4239 78.2385 16.5825L83.1482 8.96925L84.9842 8.97665L84.9475 18.0886L83.5535 18.083L83.5752 12.711C83.5759 12.5297 83.5768 12.2917 83.578 11.997C83.5906 11.7024 83.6031 11.4134 83.6155 11.1301C83.6281 10.8355 83.6403 10.6146 83.6522 10.4673L78.7765 18.0637L76.9235 18.0562L76.9603 8.94429L78.3713 8.94998L78.3489 14.5089ZM94.7832 18.1282L93.2702 18.1221L93.302 10.2512L90.616 10.2404C90.4609 12.1551 90.2507 13.7013 89.9853 14.8789C89.7199 16.0451 89.3708 16.8937 88.938 17.4247C88.5052 17.9556 87.9601 18.2197 87.3028 18.2171C87.1555 18.2165 87.0082 18.2046 86.8609 18.1813C86.725 18.1694 86.6118 18.1406 86.5213 18.0949L86.5258 16.9729C86.5937 16.9959 86.6673 17.0132 86.7466 17.0248C86.8259 17.0365 86.9052 17.0425 86.9845 17.0428C87.5965 17.0453 88.0865 16.3956 88.4544 15.0937C88.8337 13.7919 89.1252 11.7587 89.329 8.99417L94.82 9.01632L94.7832 18.1282ZM101.896 12.7849C104.265 12.7944 105.445 13.6605 105.439 15.3832C105.435 16.2332 105.143 16.912 104.563 17.4197C103.983 17.916 103.064 18.1616 101.806 18.1566L97.6753 18.1399L97.7121 9.02798L99.2081 9.03402L99.193 12.774L101.896 12.7849ZM103.942 15.4622C103.944 14.9068 103.748 14.532 103.352 14.3378C102.967 14.1322 102.424 14.028 101.721 14.0252L99.188 14.015L99.1762 16.939L101.743 16.9493C102.378 16.9519 102.9 16.8406 103.309 16.6156C103.729 16.3906 103.94 16.0062 103.942 15.4622Z" fill="url(#paint0_linear)"/>
<path d="M31.623 17.8735L31.672 5.73561L40.7839 5.77236L40.735 17.9103L39.222 17.9042L39.2655 7.10925L33.1966 7.08477L33.153 17.8797L31.623 17.8735ZM48.2259 8.6584C49.3479 8.66293 50.2473 9.05756 50.9241 9.84229C51.6123 10.6271 51.9532 11.8071 51.9469 13.3824C51.9406 14.9351 51.5902 16.1124 50.8956 16.9142C50.2124 17.7162 49.3041 18.1148 48.1708 18.1103C47.4681 18.1074 46.885 17.9747 46.4214 17.7122C45.9691 17.4384 45.6134 17.1253 45.3541 16.7729L45.2521 16.7725C45.274 16.9652 45.2957 17.209 45.3172 17.5037C45.3387 17.7985 45.349 18.0535 45.3481 18.2689L45.333 22.0088L43.837 22.0028L43.8902 8.81092L45.1142 8.81585L45.3132 10.0577L45.3812 10.0579C45.6548 9.66237 46.0132 9.32948 46.4563 9.05927C46.8994 8.78905 47.4892 8.65543 48.2259 8.6584ZM47.9488 9.91529C47.0195 9.91155 46.3611 10.1696 45.9737 10.6893C45.5976 11.2092 45.3961 12.0017 45.3691 13.0669L45.3679 13.3559C45.3634 14.4779 45.5412 15.3456 45.9014 15.9591C46.273 16.5613 46.9575 16.8644 47.9548 16.8684C48.5101 16.8706 48.9641 16.7194 49.3166 16.4149C49.6805 16.1103 49.9485 15.6977 50.1206 15.1771C50.3041 14.6452 50.3972 14.0392 50.4 13.3592C50.4042 12.3165 50.2035 11.4827 49.798 10.8578C49.4039 10.2328 48.7875 9.91868 47.9488 9.91529ZM62.2528 13.424C62.2467 14.9313 61.8567 16.0971 61.0827 16.9213C60.32 17.7456 59.287 18.1551 57.9837 18.1498C57.179 18.1466 56.4601 17.9624 55.8269 17.5971C55.2051 17.2206 54.7142 16.6803 54.3544 15.9762C53.9946 15.2607 53.8168 14.3987 53.8208 13.39C53.8269 11.8827 54.2113 10.7226 54.9739 9.90963C55.7365 9.0967 56.7695 8.69286 58.0728 8.69812C58.9001 8.70145 59.6247 8.89138 60.2465 9.26789C60.8797 9.63311 61.3706 10.1678 61.7191 10.8718C62.0789 11.5646 62.2568 12.4154 62.2528 13.424ZM55.3678 13.3962C55.3635 14.4729 55.5697 15.3294 55.9865 15.9658C56.4146 16.5908 57.0934 16.9052 58.0227 16.909C58.9407 16.9127 59.6163 16.6037 60.0494 15.9821C60.4827 15.3492 60.7014 14.4944 60.7058 13.4178C60.7101 12.3411 60.4982 11.4959 60.07 10.8822C59.6418 10.2685 58.9631 9.95972 58.0337 9.95597C57.1044 9.95222 56.4288 10.2555 56.007 10.8658C55.5852 11.4761 55.3722 12.3196 55.3678 13.3962ZM70.0825 8.78055C70.9889 8.86354 71.7756 9.10472 72.4426 9.50408C73.121 9.90348 73.6459 10.4383 74.0172 11.1084C74.3885 11.7786 74.5723 12.5727 74.5686 13.4907C74.563 14.862 74.1563 15.954 73.3484 16.7668C72.5517 17.5796 71.4505 18.0455 70.0447 18.1645L70.0288 22.1084L68.5668 22.1025L68.5827 18.1586C67.6877 18.0756 66.901 17.8401 66.2225 17.4521C65.5441 17.0526 65.0193 16.5179 64.648 15.8477C64.2767 15.1662 64.093 14.3664 64.0967 13.4484C64.1022 12.0658 64.5033 10.9681 65.3 10.1553C66.1079 9.34253 67.2318 8.88239 68.6715 8.77486L68.6864 5.10289L70.0973 5.10858L70.0825 8.78055ZM68.6665 10.0159C67.6235 10.1136 66.8628 10.4562 66.3844 11.0437C65.9061 11.6197 65.6648 12.4234 65.6606 13.4548C65.6565 14.4861 65.8912 15.2974 66.3648 15.8886C66.8498 16.4799 67.6077 16.8286 68.6386 16.9348L68.6665 10.0159ZM70.0496 16.9405C71.0701 16.8313 71.8195 16.483 72.2979 15.8955C72.7762 15.3081 73.0175 14.5044 73.0216 13.4844C73.0257 12.4645 72.7853 11.6645 72.3003 11.0845C71.8266 10.5046 71.0857 10.1559 70.0775 10.0385L70.0496 16.9405ZM78.3489 14.5089C78.3483 14.6449 78.3418 14.8489 78.3294 15.1209C78.317 15.3928 78.2989 15.6647 78.2751 15.9367C78.2627 16.2086 78.2505 16.4239 78.2385 16.5825L83.1482 8.96925L84.9842 8.97665L84.9475 18.0886L83.5535 18.083L83.5752 12.711C83.5759 12.5297 83.5768 12.2917 83.578 11.997C83.5906 11.7024 83.6031 11.4134 83.6155 11.1301C83.6281 10.8355 83.6403 10.6146 83.6522 10.4673L78.7765 18.0637L76.9235 18.0562L76.9603 8.94429L78.3713 8.94998L78.3489 14.5089ZM94.7832 18.1282L93.2702 18.1221L93.302 10.2512L90.616 10.2404C90.4609 12.1551 90.2507 13.7013 89.9853 14.8789C89.7199 16.0451 89.3708 16.8937 88.938 17.4247C88.5052 17.9556 87.9601 18.2197 87.3028 18.2171C87.1555 18.2165 87.0082 18.2046 86.8609 18.1813C86.725 18.1694 86.6118 18.1406 86.5213 18.0949L86.5258 16.9729C86.5937 16.9959 86.6673 17.0132 86.7466 17.0248C86.8259 17.0365 86.9052 17.0425 86.9845 17.0428C87.5965 17.0453 88.0865 16.3956 88.4544 15.0937C88.8337 13.7919 89.1252 11.7587 89.329 8.99417L94.82 9.01632L94.7832 18.1282ZM101.896 12.7849C104.265 12.7944 105.445 13.6605 105.439 15.3832C105.435 16.2332 105.143 16.912 104.563 17.4197C103.983 17.916 103.064 18.1616 101.806 18.1566L97.6753 18.1399L97.7121 9.02798L99.2081 9.03402L99.193 12.774L101.896 12.7849ZM103.942 15.4622C103.944 14.9068 103.748 14.532 103.352 14.3378C102.967 14.1322 102.424 14.028 101.721 14.0252L99.188 14.015L99.1762 16.939L101.743 16.9493C102.378 16.9519 102.9 16.8406 103.309 16.6156C103.729 16.3906 103.94 16.0062 103.942 15.4622Z" fill="url(#paint1_linear)"/>
<g filter="url(#filter0_d)">
<path fill-rule="evenodd" clip-rule="evenodd" d="M14 2C8.48 2 4 6.48 4 12C4 17.52 8.48 22 14 22C19.52 22 24 17.52 24 12C24 6.48 19.52 2 14 2ZM9.07 18.28C9.5 17.38 12.12 16.5 14 16.5C15.88 16.5 18.51 17.38 18.93 18.28C17.57 19.36 15.86 20 14 20C12.14 20 10.43 19.36 9.07 18.28ZM20.36 16.83C18.93 15.09 15.46 14.5 14 14.5C12.54 14.5 9.07 15.09 7.64 16.83C6.62 15.49 6 13.82 6 12C6 7.59 9.59 4 14 4C18.41 4 22 7.59 22 12C22 13.82 21.38 15.49 20.36 16.83ZM14 6C12.06 6 10.5 7.56 10.5 9.5C10.5 11.44 12.06 13 14 13C15.94 13 17.5 11.44 17.5 9.5C17.5 7.56 15.94 6 14 6ZM14 11C13.17 11 12.5 10.33 12.5 9.5C12.5 8.67 13.17 8 14 8C14.83 8 15.5 8.67 15.5 9.5C15.5 10.33 14.83 11 14 11Z" fill="#FB8E8E"/>
</g>
<mask id="mask0" mask-type="alpha" maskUnits="userSpaceOnUse" x="3" y="1" width="22" height="22">
<path fill-rule="evenodd" clip-rule="evenodd" d="M14 2C8.48 2 4 6.48 4 12C4 17.52 8.48 22 14 22C19.52 22 24 17.52 24 12C24 6.48 19.52 2 14 2ZM9.07 18.28C9.5 17.38 12.12 16.5 14 16.5C15.88 16.5 18.51 17.38 18.93 18.28C17.57 19.36 15.86 20 14 20C12.14 20 10.43 19.36 9.07 18.28ZM20.36 16.83C18.93 15.09 15.46 14.5 14 14.5C12.54 14.5 9.07 15.09 7.64 16.83C6.62 15.49 6 13.82 6 12C6 7.59 9.59 4 14 4C18.41 4 22 7.59 22 12C22 13.82 21.38 15.49 20.36 16.83ZM14 6C12.06 6 10.5 7.56 10.5 9.5C10.5 11.44 12.06 13 14 13C15.94 13 17.5 11.44 17.5 9.5C17.5 7.56 15.94 6 14 6ZM14 11C13.17 11 12.5 10.33 12.5 9.5C12.5 8.67 13.17 8 14 8C14.83 8 15.5 8.67 15.5 9.5C15.5 10.33 14.83 11 14 11Z" fill="white"/>
<path d="M9.07 18.28L8.61885 18.0644L8.44713 18.4239L8.75906 18.6716L9.07 18.28ZM18.93 18.28L19.2409 18.6716L19.55 18.4262L19.3831 18.0686L18.93 18.28ZM7.64 16.83L7.24215 17.1328L7.62497 17.6358L8.02629 17.1475L7.64 16.83ZM14 1.5C8.20386 1.5 3.5 6.20386 3.5 12H4.5C4.5 6.75614 8.75614 2.5 14 2.5V1.5ZM3.5 12C3.5 17.7961 8.20386 22.5 14 22.5V21.5C8.75614 21.5 4.5 17.2439 4.5 12H3.5ZM14 22.5C19.7961 22.5 24.5 17.7961 24.5 12H23.5C23.5 17.2439 19.2439 21.5 14 21.5V22.5ZM24.5 12C24.5 6.20386 19.7961 1.5 14 1.5V2.5C19.2439 2.5 23.5 6.75614 23.5 12H24.5ZM9.52115 18.4956C9.5662 18.4013 9.71102 18.2402 10.0218 18.0465C10.3175 17.8622 10.7085 17.6822 11.1574 17.5241C12.058 17.2068 13.1265 17 14 17V16C12.9935 16 11.812 16.2332 10.8251 16.5809C10.3302 16.7553 9.86812 16.964 9.4929 17.1978C9.13273 17.4223 8.7888 17.7087 8.61885 18.0644L9.52115 18.4956ZM14 17C14.8736 17 15.9447 17.2068 16.8465 17.5242C17.2961 17.6823 17.6872 17.8623 17.9822 18.0464C18.2927 18.2401 18.4343 18.4001 18.4769 18.4914L19.3831 18.0686C19.2157 17.7099 18.8711 17.4224 18.5116 17.198C18.1366 16.964 17.6739 16.7552 17.1785 16.5808C16.1903 16.2332 15.0064 16 14 16V17ZM18.6191 17.8884C17.3442 18.9008 15.7429 19.5 14 19.5V20.5C15.9771 20.5 17.7958 19.8192 19.2409 18.6716L18.6191 17.8884ZM14 19.5C12.2571 19.5 10.6558 18.9008 9.38094 17.8884L8.75906 18.6716C10.2042 19.8192 12.0229 20.5 14 20.5V19.5ZM20.7463 16.5125C19.9353 15.5258 18.5926 14.9072 17.3336 14.5332C16.0611 14.1552 14.7807 14 14 14V15C14.6793 15 15.8639 15.1398 17.0489 15.4918C18.2474 15.8478 19.3547 16.3942 19.9737 17.1475L20.7463 16.5125ZM14 14C13.2193 14 11.9389 14.1552 10.6664 14.5332C9.40736 14.9072 8.06469 15.5258 7.25371 16.5125L8.02629 17.1475C8.64531 16.3942 9.75264 15.8478 10.9511 15.4918C12.1361 15.1398 13.3207 15 14 15V14ZM8.03785 16.5272C7.0801 15.2689 6.5 13.7041 6.5 12H5.5C5.5 13.9359 6.1599 15.7111 7.24215 17.1328L8.03785 16.5272ZM6.5 12C6.5 7.86614 9.86614 4.5 14 4.5V3.5C9.31386 3.5 5.5 7.31386 5.5 12H6.5ZM14 4.5C18.1339 4.5 21.5 7.86614 21.5 12H22.5C22.5 7.31386 18.6861 3.5 14 3.5V4.5ZM21.5 12C21.5 13.7041 20.9199 15.2689 19.9621 16.5272L20.7579 17.1328C21.8401 15.7111 22.5 13.9359 22.5 12H21.5ZM14 5.5C11.7839 5.5 10 7.28386 10 9.5H11C11 7.83614 12.3361 6.5 14 6.5V5.5ZM10 9.5C10 11.7161 11.7839 13.5 14 13.5V12.5C12.3361 12.5 11 11.1639 11 9.5H10ZM14 13.5C16.2161 13.5 18 11.7161 18 9.5H17C17 11.1639 15.6639 12.5 14 12.5V13.5ZM18 9.5C18 7.28386 16.2161 5.5 14 5.5V6.5C15.6639 6.5 17 7.83614 17 9.5H18ZM14 10.5C13.4461 10.5 13 10.0539 13 9.5H12C12 10.6061 12.8939 11.5 14 11.5V10.5ZM13 9.5C13 8.94614 13.4461 8.5 14 8.5V7.5C12.8939 7.5 12 8.39386 12 9.5H13ZM14 8.5C14.5539 8.5 15 8.94614 15 9.5H16C16 8.39386 15.1061 7.5 14 7.5V8.5ZM15 9.5C15 10.0539 14.5539 10.5 14 10.5V11.5C15.1061 11.5 16 10.6061 16 9.5H15Z" fill="white"/>
</mask>
<g mask="url(#mask0)">
</g>
<defs>
<filter id="filter0_d" x="0" y="2" width="28" height="28" filterUnits="userSpaceOnUse" color-interpolation-filters="sRGB">
<feFlood flood-opacity="0" result="BackgroundImageFix"/>
<feColorMatrix in="SourceAlpha" type="matrix" values="0 0 0 0 0 0 0 0 0 0 0 0 0 0 0 0 0 0 127 0"/>
<feOffset dy="4"/>
<feGaussianBlur stdDeviation="2"/>
<feColorMatrix type="matrix" values="0 0 0 0 0 0 0 0 0 0 0 0 0 0 0 0 0 0 0.25 0"/>
<feBlend mode="normal" in2="BackgroundImageFix" result="effect1_dropShadow"/>
<feBlend mode="normal" in="SourceGraphic" in2="effect1_dropShadow" result="shape"/>
</filter>
<linearGradient id="paint0_linear" x1="68.5423" y1="1.02228" x2="68.4495" y2="24.0221" gradientUnits="userSpaceOnUse">
<stop stop-color="#F8B1B1"/>
<stop offset="1" stop-color="white" stop-opacity="0"/>
</linearGradient>
<linearGradient id="paint1_linear" x1="68.5423" y1="1.02228" x2="68.4495" y2="24.0221" gradientUnits="userSpaceOnUse">
<stop stop-color="#F8B1B1"/>
<stop offset="1" stop-color="white" stop-opacity="0"/>
</linearGradient>
</defs>
</svg>
