<svg width="24" height="24" viewBox="0 0 24 24" fill="none" xmlns="http://www.w3.org/2000/svg">
<path d="M12.0005 2C11.4905 2 10.9795 2.038 10.4815 2.114C10.0845 2.175 9.80749 2.544 9.87349 2.943C9.93449 3.34 10.3055 3.612 10.7015 3.552C11.1265 3.487 11.5635 3.454 12.0005 3.454C16.7125 3.454 20.5455 7.288 20.5455 12C20.5455 16.712 16.7125 20.546 12.0005 20.546C7.28749 20.546 3.45449 16.712 3.45449 12C3.45449 9.327 4.66949 6.857 6.79049 5.226C7.10749 4.979 7.16849 4.523 6.92249 4.205C6.67849 3.888 6.22049 3.828 5.90249 4.073C3.42349 5.983 2.00049 8.872 2.00049 12C2.00049 17.514 6.48649 22 12.0005 22C17.5145 22 22.0005 17.514 22.0005 12C22.0005 6.486 17.5145 2 12.0005 2Z" fill="#200E32"/>
<path d="M19.6229 2.52767L11.7978 12.6537L8.37712 8.22584C7.8333 7.52227 6.95169 7.52227 6.40787 8.22584C5.86404 8.9294 5.86404 10.07 6.40787 10.7736L10.8123 16.4741C11.074 16.8103 11.4266 17 11.7978 17C12.1653 17 12.5198 16.8103 12.7815 16.4741L21.5921 5.0754C22.136 4.37183 22.136 3.23124 21.5921 2.52767C21.0483 1.82411 20.1667 1.82411 19.6229 2.52767" fill="#230B34"/>
</svg>
